<?xml version="1.0" standalone="no"?>
<!DOCTYPE svg PUBLIC "-//W3C//DTD SVG 1.1//EN" "http://www.w3.org/Graphics/SVG/1.1/DTD/svg11.dtd" >
<svg xmlns="http://www.w3.org/2000/svg">
<metadata>
This is a custom SVG webfont generated by Font Squirrel.
Copyright   : Copyright c ARS TypeAngus R Shamal 19992010 All rights reserved
</metadata>
<defs>
<font id="ARSMaquetteProMedium" horiz-adv-x="1202" >
<font-face units-per-em="2048" ascent="1638" descent="-410" />
<missing-glyph horiz-adv-x="552" />
<glyph unicode=" "  horiz-adv-x="552" />
<glyph unicode="&#x09;" horiz-adv-x="552" />
<glyph unicode="&#xa0;" horiz-adv-x="552" />
<glyph unicode="!" horiz-adv-x="569" d="M160 0v256h250v-256h-250zM160 1051v313h250v-313l-66 -623h-119z" />
<glyph unicode="&#x22;" horiz-adv-x="858" d="M92 1286v78h254v-78l-72 -455h-110zM512 1286v78h254v-78l-72 -455h-110z" />
<glyph unicode="#" horiz-adv-x="1308" d="M76 381v135h254l61 334h-231v135h254l69 379h150l-68 -379h285l70 379h149l-70 -379h232v-135h-254l-59 -334h231v-135h-256l-68 -381h-151l69 381h-286l-68 -381h-149l67 381h-231zM481 516h287l59 334h-286z" />
<glyph unicode="$" d="M55 274l185 103q100 -182 323 -211v432q-88 18 -154.5 43t-138 70t-111.5 117.5t-40 170.5q0 172 121.5 276.5t322.5 113.5v131h115v-136q272 -31 424 -245l-166 -107q-102 129 -258 160v-389q94 -23 164.5 -50.5t140.5 -73.5t107.5 -119t37.5 -167q0 -170 -120.5 -283.5 t-329.5 -132.5v-174h-115v174q-356 23 -508 297zM340 1022q0 -82 54.5 -122t168.5 -71v371q-98 -4 -160.5 -48t-62.5 -130zM678 166q109 8 170 62.5t61 144.5q0 86 -57 129t-174 71v-407z" />
<glyph unicode="%" horiz-adv-x="1593" d="M72 1040q0 145 94 243.5t239.5 98.5t239.5 -98t94 -244q0 -147 -94 -245.5t-239.5 -98.5t-239.5 98.5t-94 245.5zM225 1040q0 -82 50.5 -136t130.5 -54q78 0 128 54t50 136t-49.5 135.5t-129 53.5t-130 -53.5t-50.5 -135.5zM352 0l715 1364h176l-717 -1364h-174zM856 326 q0 145 95.5 243.5t238.5 98.5q145 0 239.5 -98.5t94.5 -243.5q0 -147 -94.5 -245.5t-239.5 -98.5q-143 0 -238.5 98.5t-95.5 245.5zM1012 326q0 -82 50 -136.5t128 -54.5q80 0 130 54.5t50 136.5q0 80 -50 134t-130 54t-129 -53t-49 -135z" />
<glyph unicode="&#x26;" horiz-adv-x="1402" d="M61 367q0 254 304 381q-78 86 -113 154.5t-35 152.5q0 160 109.5 247t285.5 87q170 0 278.5 -85t108.5 -233q0 -227 -309 -369l295 -299q84 123 117 248l198 -47q-57 -195 -178 -342l260 -262h-297l-118 119q-188 -143 -418 -144q-211 0 -349.5 105t-138.5 287zM289 393 q0 -100 80 -163.5t206 -63.5q141 0 259 92l-355 367q-190 -91 -190 -232zM428 1059q0 -59 34 -109.5t107 -126.5q113 53 172.5 106.5t59.5 131.5q0 74 -53.5 116t-133.5 42q-78 0 -132 -42t-54 -118z" />
<glyph unicode="'" horiz-adv-x="436" d="M92 1286v78h252v-78l-72 -455h-110z" />
<glyph unicode="(" horiz-adv-x="608" d="M76 621q0 492 354 874l139 -102q-295 -336 -295 -772.5t295 -772.5l-139 -102q-354 386 -354 875z" />
<glyph unicode=")" horiz-adv-x="608" d="M39 -152q297 336 297 772.5t-297 772.5l141 102q352 -387 352 -874q0 -492 -352 -875z" />
<glyph unicode="*" horiz-adv-x="927" d="M84 897q76 45 135.5 69.5t173.5 57.5q-184 55 -309 127l80 139q76 -43 127 -83t137 -122q-45 184 -45 332h160q0 -156 -43 -332q139 135 262 205l82 -139q-127 -72 -309 -127q182 -53 309 -127l-82 -137q-121 70 -262 203q43 -176 43 -332h-160q0 147 45 332 q-141 -135 -264 -203z" />
<glyph unicode="+" d="M98 526v193h406v407h194v-407h406v-193h-406v-405h-194v405h-406z" />
<glyph unicode="," horiz-adv-x="528" d="M127 -240q127 92 127 207v33h-121v258h262v-217q0 -217 -190 -369z" />
<glyph unicode="-" horiz-adv-x="819" d="M119 475v201h581v-201h-581z" />
<glyph unicode="." horiz-adv-x="528" d="M133 0v258h262v-258h-262z" />
<glyph unicode="/" horiz-adv-x="763" d="M66 -221l450 1683h186l-450 -1683h-186z" />
<glyph unicode="0" d="M88 684q0 111 15.5 209t52.5 191.5t93 160t145 106.5t204 40q141 0 245.5 -59.5t161 -164t82 -224.5t25.5 -259q0 -111 -15.5 -209t-52 -191.5t-94 -161t-147.5 -107.5t-205 -40t-204 40t-145 107.5t-93 161t-52.5 191.5t-15.5 209zM330 684q0 -510 268 -510t268 510 q0 506 -268 506t-268 -506z" />
<glyph unicode="1" d="M227 1190q301 55 422 174h180v-1364h-237v1096q-143 -68 -336 -90z" />
<glyph unicode="2" d="M84 1104q182 285 500 285q205 0 337 -116t132 -310q0 -176 -137.5 -348.5t-450.5 -405.5h639v-209h-985v170q385 309 533.5 475t148.5 305q0 109 -65.5 167.5t-172.5 58.5q-186 0 -289 -183z" />
<glyph unicode="3" d="M63 279l209 98q92 -193 322 -193q123 0 191.5 59.5t68.5 159.5q0 94 -69.5 147.5t-206.5 53.5h-111v199h115q115 0 175 53t60 141q0 86 -60.5 134.5t-168.5 48.5q-201 0 -309 -168l-181 112q184 264 502 265q203 0 331 -102.5t128 -262.5q0 -205 -201 -301 q117 -45 179.5 -132t62.5 -198q0 -178 -137.5 -298t-368.5 -120q-375 1 -531 304z" />
<glyph unicode="4" d="M61 305v187q127 225 196 459.5t69 412.5h233q0 -178 -72.5 -410.5t-199.5 -445.5h428v567h233v-567h193v-203h-193v-305h-233v305h-654z" />
<glyph unicode="5" d="M80 248l199 112q92 -174 299 -174q125 0 201.5 71t76.5 189q0 117 -73.5 185.5t-202.5 68.5q-174 0 -277 -127l-143 66l47 725h819v-217h-627l-30 -334q111 78 272 78q199 0 330 -121t131 -319q0 -197 -137.5 -336.5t-378.5 -139.5q-346 1 -506 273z" />
<glyph unicode="6" d="M100 492q0 426 465 872h336q-156 -121 -290 -267.5t-191 -275.5q90 92 270 92q190 0 314 -124.5t124 -327.5q0 -215 -141 -350.5t-373 -135.5q-238 0 -376 135.5t-138 381.5zM346 457q0 -123 70.5 -197t199.5 -74q125 0 195 74t70 197t-70 195.5t-195 72.5 q-127 0 -198.5 -73.5t-71.5 -194.5z" />
<glyph unicode="7" d="M94 1155v209h1016v-172q-537 -713 -545 -1192h-264q20 494 528 1155h-735z" />
<glyph unicode="8" d="M84 387q0 117 61.5 208t178.5 138q-190 94 -191 293q0 164 134 263.5t335 99.5t334 -99.5t133 -263.5q0 -199 -190 -293q117 -47 178 -138t61 -208q0 -180 -138 -296t-378 -116q-242 0 -380 116t-138 296zM332 403q0 -111 71.5 -171t198.5 -60q125 0 196.5 60.5 t71.5 170.5q0 109 -69.5 169.5t-198.5 60.5t-199.5 -60.5t-70.5 -169.5zM375 1001.5q0 -90.5 60.5 -139.5t165 -49t165.5 49t61 139.5t-61 140.5t-164 50q-104 0 -165.5 -50t-61.5 -140.5z" />
<glyph unicode="9" d="M72 903q0 215 142 350.5t374 135.5q236 0 375 -135.5t139 -381.5q0 -238 -124 -448.5t-343 -423.5h-336q156 119 290 265.5t193 275.5q-90 -90 -270 -90q-190 0 -315 123.5t-125 328.5zM322 907q0 -123 68.5 -195.5t195.5 -72.5t198.5 73.5t71.5 194.5q0 123 -70.5 197 t-199.5 74q-127 0 -195.5 -73t-68.5 -198z" />
<glyph unicode=":" horiz-adv-x="606" d="M172 0v258h262v-258h-262zM172 817v258h262v-258h-262z" />
<glyph unicode=";" horiz-adv-x="606" d="M166 -240q127 92 127 207v33h-121v258h262v-217q0 -217 -190 -369zM172 817v258h262v-258h-262z" />
<glyph unicode="&#x3c;" d="M211 625l594 592l133 -134l-455 -458l455 -457l-133 -133z" />
<glyph unicode="=" d="M98 319v195h1006v-195h-1006zM98 733v193h1006v-193h-1006z" />
<glyph unicode="&#x3e;" d="M264 168l459 457l-459 458l133 134l594 -592l-594 -590z" />
<glyph unicode="?" horiz-adv-x="1087" d="M61 1210q207 180 461 181q207 0 340 -114t133 -306q0 -178 -116.5 -291t-300.5 -143v-109h-224v303q35 -10 90 -10q137 0 221.5 63.5t84.5 178.5q0 98 -68 157.5t-182 59.5q-172 0 -307 -125zM336 0v242h262v-242h-262z" />
<glyph unicode="@" horiz-adv-x="1736" d="M86 616q0 328 221 551.5t572 223.5q346 0 565 -221.5t219 -540.5q0 -190 -91 -305t-247 -115q-172 0 -235 135q-94 -139 -271 -139q-160 0 -256 114.5t-96 290.5q0 178 96 293t258 115q135 0 228 -107v90h184v-546q0 -127 115 -127q88 0 135 78.5t47 209.5 q0 283 -177 466.5t-470 183.5q-289 0 -469.5 -188.5t-180.5 -461.5q0 -274 180.5 -461.5t469.5 -187.5q186 0 325 88l60 -110q-184 -100 -394 -101q-348 0 -568 220t-220 552zM657 610q0 -106 50.5 -175.5t144.5 -69.5t145.5 69.5t51.5 175.5q0 109 -52.5 178.5t-146.5 69.5 q-92 0 -142.5 -69.5t-50.5 -178.5z" />
<glyph unicode="A" horiz-adv-x="1384" d="M16 0l535 1364h283l534 -1364h-268l-129 348h-565l-130 -348h-260zM469 549h436l-215 604z" />
<glyph unicode="B" horiz-adv-x="1363" d="M170 0v1364h598q215 0 333 -88t118 -248q0 -199 -179 -293q231 -96 232 -342q0 -176 -120 -284.5t-341 -108.5h-641zM410 211h389q106 0 165.5 52t59.5 147q0 92 -56.5 148t-162.5 56h-395v-403zM410 811h354q100 0 156.5 48t56.5 134q0 160 -221 160h-346v-342z" />
<glyph unicode="C" horiz-adv-x="1386" d="M88 684q0 309 185.5 507t484.5 198q367 0 559 -297l-189 -121q-127 205 -364 205q-193 0 -309.5 -135.5t-116.5 -354.5q0 -223 115.5 -360.5t308.5 -137.5q233 0 364 215l199 -114q-193 -313 -565 -314q-299 0 -485.5 198t-186.5 511z" />
<glyph unicode="D" horiz-adv-x="1476" d="M170 0v1364h541q317 0 496 -190.5t179 -491.5t-179 -491.5t-496 -190.5h-541zM412 217h299q205 0 315.5 125t110.5 340t-111 340t-315 125h-299v-930z" />
<glyph unicode="E" horiz-adv-x="1271" d="M170 0v1364h993v-209h-753v-332h655v-209h-655v-405h774v-209h-1014z" />
<glyph unicode="F" horiz-adv-x="1239" d="M170 0v1364h1012v-209h-772v-352h653v-209h-653v-594h-240z" />
<glyph unicode="G" horiz-adv-x="1478" d="M88 684q0 315 185.5 510t490.5 195q365 0 555 -293l-197 -119q-119 199 -360 199q-199 0 -311.5 -135.5t-112.5 -356.5q0 -229 114.5 -362.5t315.5 -133.5q162 0 270.5 87t122.5 239h-377v209h613q10 -47 10 -111q0 -272 -172 -454.5t-471 -182.5q-305 0 -490.5 198 t-185.5 511z" />
<glyph unicode="H" horiz-adv-x="1497" d="M170 0v1364h240v-537h675v537h242v-1364h-242v612h-675v-612h-240z" />
<glyph unicode="I" horiz-adv-x="577" d="M170 0v1364h238v-1364h-238z" />
<glyph unicode="J" horiz-adv-x="1064" d="M25 211l194 117q80 -137 230 -138q219 0 219 250v715h-383v209h622v-920q0 -225 -125 -347t-336 -122q-292 0 -421 236z" />
<glyph unicode="K" horiz-adv-x="1349" d="M170 0v1364h238v-682l608 682h289l-508 -567l561 -797h-285l-440 623l-225 -252v-371h-238z" />
<glyph unicode="L" horiz-adv-x="1171" d="M170 0v1364h238v-1147h733v-217h-971z" />
<glyph unicode="M" horiz-adv-x="1816" d="M170 0v1364h352l389 -1065l389 1065h347v-1364h-234v1112l-405 -1112h-201l-404 1110v-1110h-233z" />
<glyph unicode="N" horiz-adv-x="1497" d="M170 0v1364h303l625 -1032v1032h229v-1364h-287l-641 1057v-1057h-229z" />
<glyph unicode="O" horiz-adv-x="1527" d="M86 682q0 305 185.5 506t492.5 201t492.5 -201t185.5 -506t-185.5 -506t-492.5 -201t-492.5 201t-185.5 506zM336 682q0 -215 114.5 -350t313.5 -135q197 0 312.5 135t115.5 350t-115.5 350t-312.5 135q-199 0 -313.5 -135t-114.5 -350z" />
<glyph unicode="P" horiz-adv-x="1310" d="M170 0v1364h594q231 0 363.5 -119t132.5 -319.5t-131.5 -318.5t-364.5 -118h-354v-489h-240zM410 698h352q123 0 187.5 59.5t64.5 168.5q0 111 -64.5 170t-187.5 59h-352v-457z" />
<glyph unicode="Q" horiz-adv-x="1527" d="M86 682q0 305 185.5 506t492.5 201t492.5 -201t185.5 -506q0 -322 -203 -520l158 -178l-172 -142l-162 197q-137 -63 -299 -64q-307 0 -492.5 201t-185.5 506zM336 682q0 -215 114.5 -350t313.5 -135q197 0 312.5 135t115.5 350t-115.5 350t-312.5 135 q-199 0 -313.5 -135t-114.5 -350z" />
<glyph unicode="R" horiz-adv-x="1363" d="M170 0v1364h612q223 0 350.5 -112.5t127.5 -299.5q0 -139 -77 -239.5t-196 -145.5l309 -567h-268l-274 522h-344v-522h-240zM410 723h370q104 0 169 58.5t65 156.5q0 100 -65.5 158.5t-172.5 58.5h-366v-432z" />
<glyph unicode="S" horiz-adv-x="1261" d="M57 279l193 112q129 -213 403 -213q129 0 207 53.5t78 147.5q0 43 -19.5 74.5t-42 50t-79 37t-88.5 25.5l-113 24q-84 16 -145.5 34.5t-127 51.5t-106.5 72.5t-67.5 102t-26.5 140.5q0 184 137 291t358 107q352 0 535 -254l-180 -121q-129 172 -363 172 q-111 0 -179.5 -43t-68.5 -131q0 -37 17.5 -67t39 -47t71 -33.5t79 -25t97.5 -22.5q119 -25 196.5 -50.5t157.5 -71.5t119 -117.5t39 -171.5q0 -193 -145.5 -312t-393.5 -119q-199 0 -350.5 81.5t-231.5 222.5z" />
<glyph unicode="T" horiz-adv-x="1249" d="M55 1155v209h1139v-209h-451v-1155h-239v1155h-449z" />
<glyph unicode="U" horiz-adv-x="1456" d="M156 518v846h239v-846q0 -150 87 -235.5t245 -85.5q156 0 246 86t90 235v846h237v-846q0 -252 -158.5 -397.5t-414.5 -145.5q-258 0 -414.5 145.5t-156.5 397.5z" />
<glyph unicode="V" horiz-adv-x="1318" d="M14 1364h260l385 -1083l390 1083h256l-517 -1364h-256z" />
<glyph unicode="W" horiz-adv-x="1945" d="M47 1364h256l258 -1042l303 1042h221l301 -1047l259 1047h258l-381 -1364h-265l-286 1016l-289 -1016h-266z" />
<glyph unicode="X" horiz-adv-x="1351" d="M2 0l522 711l-479 653h289l344 -494l346 494h281l-476 -653l521 -711h-291l-385 537l-383 -537h-289z" />
<glyph unicode="Y" horiz-adv-x="1294" d="M4 1364h281l364 -602l367 602h276l-526 -819v-545h-240v545z" />
<glyph unicode="Z" horiz-adv-x="1255" d="M80 0v188l758 967h-727v209h1042v-180l-762 -975h780v-209h-1091z" />
<glyph unicode="[" horiz-adv-x="630" d="M154 -221v1683h456v-159h-260v-1364h260v-160h-456z" />
<glyph unicode="\" horiz-adv-x="763" d="M61 1462h187l450 -1683h-186z" />
<glyph unicode="]" horiz-adv-x="632" d="M20 -61h263v1364h-263v159h459v-1683h-459v160z" />
<glyph unicode="^" d="M45 893l471 471h172l471 -471l-133 -135l-422 424l-426 -424z" />
<glyph unicode="_" horiz-adv-x="1222" d="M0 -154h1223v-102h-1223v102z" />
<glyph unicode="`" horiz-adv-x="657" d="M123 1462l201 33q51 -109 176 -258l-86 -59q-90 49 -174 129.5t-117 154.5z" />
<glyph unicode="a" horiz-adv-x="1355" d="M82 537q0 246 134 404.5t359 158.5q227 0 363 -182v157h227v-825q0 -53 17.5 -75.5t56.5 -22.5t59 14l27 -156q-53 -26 -131 -26h-6q-193 0 -236 170q-125 -178 -372 -179q-229 0 -363.5 159t-134.5 403zM322 536.5q0 -157.5 77.5 -258t225.5 -100.5q150 0 231.5 101.5 t81.5 257.5q0 158 -83 259t-230.5 101t-225 -101.5t-77.5 -259z" />
<glyph unicode="b" horiz-adv-x="1312" d="M150 0v1462h225v-544q139 182 364 182q223 0 357.5 -159t134.5 -402.5t-134 -403.5t-358 -160q-225 0 -364 183v-158h-225zM375 537q0 -158 82 -258.5t231 -100.5q147 0 225 100.5t78 258.5q0 156 -77.5 258t-225 102t-230.5 -102t-83 -258z" />
<glyph unicode="c" horiz-adv-x="1120" d="M80 537q0 246 146.5 404.5t385.5 158.5q289 0 445 -240l-170 -121q-90 162 -264 162q-139 0 -221.5 -102.5t-82.5 -259.5q0 -160 83 -262.5t223 -102.5q166 0 268 156l170 -117q-158 -238 -449 -238q-242 0 -388 159t-146 403z" />
<glyph unicode="d" horiz-adv-x="1314" d="M82 537q0 246 134 404.5t359 158.5q227 0 363 -182v544h227v-1462h-227v158q-135 -182 -363 -183q-225 0 -359 159t-134 403zM322 536.5q0 -157.5 77.5 -258t225.5 -100.5q150 0 231.5 101.5t81.5 257.5q0 158 -83 259t-230.5 101t-225 -101.5t-77.5 -259z" />
<glyph unicode="e" horiz-adv-x="1222" d="M82 532.5q0 245.5 146.5 406.5t394.5 161q240 0 382 -151.5t142 -389.5q0 -41 -4 -78h-819q8 -145 96 -225t233 -80q186 0 312 135l147 -141q-184 -195 -467 -195q-264 0 -413.5 156t-149.5 401.5zM328 645h592q-12 131 -93.5 202t-201.5 71q-127 0 -207 -76t-90 -197z " />
<glyph unicode="f" horiz-adv-x="743" d="M45 901v174h178v96q0 150 91.5 232t254.5 82q113 0 174 -23l-26 -180q-78 20 -129 21q-70 0 -103.5 -29t-33.5 -96v-103h241v-174h-241v-901h-228v901h-178z" />
<glyph unicode="g" horiz-adv-x="1316" d="M84 575q0 225 138 375t353 150q240 0 367 -182v157h227v-887q0 -262 -118 -395q-152 -170 -471 -170q-266 0 -455 125l98 180q150 -106 357 -106q164 0 263 76.5t99 238.5v101q-129 -180 -373 -181q-215 0 -350 147.5t-135 370.5zM324 579.5q0 -141.5 79.5 -234.5 t225 -93t230.5 93t85 234.5t-83 232.5t-232 91q-147 0 -226 -91t-79 -232.5z" />
<glyph unicode="h" horiz-adv-x="1234" d="M150 0v1462h225v-544q137 182 352 182q174 0 272.5 -107.5t98.5 -292.5v-700h-226v649q0 244 -213 244q-123 0 -203.5 -80t-80.5 -211v-602h-225z" />
<glyph unicode="i" horiz-adv-x="524" d="M150 0v1075h225v-1075h-225zM150 1249v213h225v-213h-225z" />
<glyph unicode="j" horiz-adv-x="526" d="M-184 -332l61 176q51 -24 107 -24h4q162 0 162 184v1071h227v-1065q0 -188 -99.5 -285.5t-269.5 -97.5q-110 0 -192 41zM150 1249v213h227v-213h-227z" />
<glyph unicode="k" horiz-adv-x="1198" d="M150 0v1462h225v-905l491 518h277l-420 -432l473 -643h-278l-351 492l-192 -197v-295h-225z" />
<glyph unicode="l" horiz-adv-x="608" d="M152 283v1179h225v-1181q0 -113 94 -113q55 0 92 22l43 -172q-61 -38 -168 -38h-6q-164 0 -235 98q-45 66 -45 205z" />
<glyph unicode="m" horiz-adv-x="1896" d="M150 0v1075h225v-153q133 178 336 178q240 0 313 -205q145 205 375 205q174 0 267 -105.5t93 -287.5v-707h-225v653q0 240 -203 240q-115 0 -189.5 -79t-74.5 -208v-606h-225v653q0 240 -203 240q-115 0 -189.5 -78t-74.5 -209v-606h-225z" />
<glyph unicode="n" horiz-adv-x="1234" d="M150 0v1075h225v-157q137 182 352 182q174 0 272.5 -107.5t98.5 -292.5v-700h-226v649q0 244 -213 244q-123 0 -203.5 -80t-80.5 -211v-602h-225z" />
<glyph unicode="o" horiz-adv-x="1253" d="M82 537q0 250 148.5 406.5t396 156.5t396 -157t148.5 -406q0 -248 -148.5 -405t-396 -157t-396 157t-148.5 405zM322 537q0 -160 81.5 -262.5t223 -102.5t222.5 102.5t81 262.5q0 162 -81 264t-222.5 102t-223 -102t-81.5 -264z" />
<glyph unicode="p" horiz-adv-x="1312" d="M150 -356v1431h225v-157q139 182 364 182q223 0 357.5 -160t134.5 -401q0 -244 -134 -404t-358 -160q-225 0 -364 181v-512h-225zM375 536.5q0 -155.5 83 -257t230.5 -101.5t225 101.5t77.5 257.5q0 158 -77.5 259t-225 101t-230.5 -102.5t-83 -258z" />
<glyph unicode="q" horiz-adv-x="1314" d="M82 536.5q0 243.5 135 403.5t358 160q227 0 363 -182v157h227v-1431h-227v512q-137 -180 -362 -180q-1 -1 -2 -1q-224 0 -358 159t-134 402.5zM322 539q0 -156 77.5 -258.5t225 -102.5t230.5 102.5t83 258t-83 257t-230.5 101.5t-225 -100t-77.5 -258z" />
<glyph unicode="r" horiz-adv-x="831" d="M150 0v1075h225v-174q123 195 303 195q88 0 143 -37l-65 -221q-59 32 -119 32h-4q-109 0 -183.5 -88t-74.5 -235v-547h-225z" />
<glyph unicode="s" horiz-adv-x="1093" d="M55 217l160 113q121 -170 352 -170q102 0 163 36.5t61 106.5q0 68 -60.5 95.5t-212.5 52.5q-197 35 -301 103.5t-104 219.5q0 160 120.5 243t301.5 83q287 0 462 -189l-143 -131q-119 135 -322 135q-84 0 -142 -30.5t-58 -89.5q0 -63 61.5 -90t194.5 -50 q78 -14 133 -28.5t114.5 -39t95.5 -58t59.5 -85t23.5 -116.5q0 -160 -123 -256.5t-336 -96.5q-342 0 -500 242z" />
<glyph unicode="t" horiz-adv-x="843" d="M37 901v174h180v289h227v-289h332v-174h-332v-565q0 -160 146 -160q76 0 135 47l90 -168q-104 -80 -256 -80q-205 0 -291 138q-51 76 -51 225v563h-180z" />
<glyph unicode="u" horiz-adv-x="1234" d="M137 375v700h225v-649q0 -244 213 -244q123 0 204 80t81 211v602h225v-1075h-225v156q-139 -180 -352 -181q-174 0 -272.5 108t-98.5 292z" />
<glyph unicode="v" horiz-adv-x="1120" d="M18 1075h254l291 -807l289 807h250l-426 -1075h-234z" />
<glyph unicode="w" horiz-adv-x="1644" d="M49 1075h244l194 -786l236 786h207l233 -786l193 786h239l-299 -1075h-241l-232 782l-237 -782h-240z" />
<glyph unicode="x" horiz-adv-x="1138" d="M20 0l404 561l-367 514h271l245 -370l244 370h266l-364 -516l397 -559h-274l-273 408l-276 -408h-273z" />
<glyph unicode="y" horiz-adv-x="1234" d="M121 -254l98 174q131 -98 322 -98q143 0 231 67.5t88 206.5v142q-139 -180 -352 -181q-174 0 -272.5 107.5t-98.5 292.5v618h225v-565q0 -246 213 -246q123 0 204 80t81 211v520h225v-930q0 -244 -116 -368q-147 -154 -428 -154q-246 0 -420 123z" />
<glyph unicode="z" horiz-adv-x="1067" d="M80 0v174l577 703h-553v198h861v-172l-576 -704h594v-199h-903z" />
<glyph unicode="{" horiz-adv-x="757" d="M39 541v159h74q170 0 170 187v239q0 162 94 253t250 91h114v-159h-82q-178 0 -178 -199v-197q0 -227 -180 -294q180 -66 180 -293v-199q0 -199 178 -199h82v-159h-114q-156 0 -250 91t-94 253v239q0 186 -170 187h-74z" />
<glyph unicode="|" horiz-adv-x="481" d="M154 -221v1683h174v-1683h-174z" />
<glyph unicode="}" horiz-adv-x="757" d="M16 -70h82q180 0 181 199v197q0 227 180 295q-180 66 -180 292v199q0 199 -181 199h-82v159h117q156 0 249 -90t93 -254v-239q0 -186 172 -187h72v-159h-72q-172 0 -172 -187v-239q0 -164 -93 -254t-249 -90h-117v159z" />
<glyph unicode="~" horiz-adv-x="1253" d="M92 553q92 131 172 190.5t189 59.5q94 0 186 -64q72 -49 107.5 -66.5t78.5 -17.5q106 0 228 148l114 -92q-92 -131 -172 -190.5t-188 -59.5q-94 0 -186 63q-72 49 -108 66.5t-79 17.5q-106 0 -227 -147z" />
<glyph unicode="&#xa1;" horiz-adv-x="573" d="M162 23l65 620h119l66 -620v-314h-250v314zM162 819v256h250v-256h-250z" />
<glyph unicode="&#xa2;" d="M109 536.5q0 229.5 131 386t348 175.5v168h114v-170q242 -23 383 -236l-170 -121q-74 133 -213 158v-721q133 23 220 154l170 -117q-141 -211 -390 -233v-173h-114v173q-219 18 -349 172.5t-130 384zM344 539q0 -143 63.5 -239.5t180.5 -119.5v715 q-117 -20 -180.5 -117.5t-63.5 -238.5z" />
<glyph unicode="&#xa3;" d="M43 569v154h156q-63 166 -64 252q0 188 136.5 301t349.5 113q326 0 495 -279l-198 -106q-100 166 -285 165q-109 0 -178.5 -56t-69.5 -159q0 -72 66 -231h385v-154h-342q18 -55 18 -108q0 -51 -27.5 -116.5t-76.5 -111.5q63 29 147 29q68 0 163 -30.5t136 -30.5 q98 0 143 118l183 -106q-98 -238 -301 -238q-70 0 -204 45.5t-208 45.5q-160 0 -313 -91l-84 177q213 115 213 278q0 66 -27 139h-213z" />
<glyph unicode="&#xa4;" d="M106 266l154 150q-59 96 -59 205q0 111 59 206l-154 152l138 137l153 -153q90 57 203 57t203 -57l155 153l136 -137l-152 -154q57 -98 57 -204q0 -104 -57 -203l152 -152l-136 -137l-153 152q-92 -59 -205 -60q-109 0 -205 60l-151 -152zM367 621q0 -96 68.5 -165 t164.5 -69q98 0 167 68.5t69 165.5q0 98 -69 166.5t-167 68.5q-96 0 -164.5 -68.5t-68.5 -166.5z" />
<glyph unicode="&#xa5;" d="M39 1364h276l291 -594l285 594h272l-350 -645h264v-117h-327l-31 -51v-113h358v-119h-358v-319h-238v319h-360v119h360v111l-30 53h-330v117h268z" />
<glyph unicode="&#xa6;" horiz-adv-x="464" d="M158 -221v647h149v-647h-149zM158 815v647h149v-647h-149z" />
<glyph unicode="&#xa7;" horiz-adv-x="1142" d="M76 836q0 240 152.5 397.5t406.5 157.5q240 0 405 -144l-127 -162q-115 109 -278 109q-188 0 -277 -133l269 -160q203 -119 317.5 -263t114.5 -347q0 -240 -152.5 -397.5t-406.5 -157.5q-242 0 -404 141l125 162q115 -109 281 -109q195 0 282 129l-276 166 q-131 80 -219 157t-150.5 196t-62.5 258zM285 852q0 -84 23.5 -152.5t77.5 -132t116.5 -116t167.5 -125.5l176 -125q8 35 8 73q0 160 -88 268.5t-297 258.5l-174 125q-10 -45 -10 -74z" />
<glyph unicode="&#xa8;" horiz-adv-x="657" d="M16 1217v186h183v-186h-183zM459 1217v186h180v-186h-180z" />
<glyph unicode="&#xa9;" horiz-adv-x="1599" d="M80 682q0 297 211 508t510 211q297 0 508 -211t211 -508t-211 -508t-508 -211t-509 211t-212 508zM203 682q0 -248 175 -422t423 -174q246 0 420 174t174 422t-174 422t-420 174t-422 -174t-176 -422zM383 682q0 174 123 297t295 123q233 0 364 -213l-137 -90 q-78 133 -225 133q-102 0 -176 -74t-74 -176t73.5 -176t176.5 -74q143 0 227 137l139 -90q-61 -104 -158.5 -159.5t-209.5 -55.5q-172 0 -295 122t-123 296z" />
<glyph unicode="&#xaa;" horiz-adv-x="903" d="M88 872q0 74 34 120t83 62.5t108.5 27t108.5 12.5t83 18t34 49q0 76 -138 76q-121 0 -221 -70l-65 123q131 88 301 88q150 0 222.5 -64.5t72.5 -201.5v-270q0 -51 41 -51q25 0 43 10l22 -119q-35 -18 -102 -18q-119 0 -146 88q-82 -94 -235 -95q-109 0 -177.5 57.5 t-68.5 157.5zM252 879q0 -45 33.5 -68t83.5 -23q74 0 124 38t50 112v84q-43 -33 -152 -49q-49 -8 -73.5 -14.5t-45 -25.5t-20.5 -54z" />
<glyph unicode="&#xab;" horiz-adv-x="987" d="M55 498v80l310 401l120 -92l-241 -350l241 -351l-120 -92zM465 498v80l307 401l123 -92l-242 -350l242 -351l-123 -92z" />
<glyph unicode="&#xac;" horiz-adv-x="1236" d="M106 526v193h1004v-598h-190v405h-814z" />
<glyph unicode="&#xad;" horiz-adv-x="819" d="M119 475v201h581v-201h-581z" />
<glyph unicode="&#xae;" horiz-adv-x="946" d="M82 997.5q0 161.5 114.5 276.5t276.5 115t276.5 -115t114.5 -276.5t-114.5 -276.5t-276.5 -115t-276.5 115t-114.5 276.5zM135 997.5q0 -139.5 99.5 -239t238.5 -99.5t237.5 99.5t98.5 239t-98.5 238.5t-237.5 99t-238.5 -99t-99.5 -238.5zM313 797v403h189q63 0 103 -35 t40 -92q0 -92 -78 -119l88 -157h-100l-68 143h-86v-143h-88zM401 1010h97q25 0 41 17t16 44q0 25 -16.5 41t-40.5 16h-97v-118z" />
<glyph unicode="&#xaf;" horiz-adv-x="692" d="M20 1237v137h637v-137h-637z" />
<glyph unicode="&#xb0;" horiz-adv-x="780" d="M76 1071q0 131 92 224.5t223 93.5q129 0 222.5 -93.5t93.5 -224.5q0 -129 -93.5 -222t-222.5 -93q-131 0 -223 93t-92 222zM217 1071q0 -70 52.5 -121t122 -51t120.5 51t51 121q0 72 -51 123t-121 51q-72 0 -123 -51t-51 -123z" />
<glyph unicode="&#xb1;" d="M98 0v193h1006v-193h-1006zM98 696v193h406v381h194v-381h406v-193h-406v-377h-194v377h-406z" />
<glyph unicode="&#xb2;" horiz-adv-x="794" d="M45 1380q125 190 336 191q143 0 232 -74t89 -203q0 -109 -73.5 -201t-276.5 -251h383v-158h-661v131q260 197 352 293t92 176q0 59 -44 93t-107 34q-115 0 -183 -111z" />
<glyph unicode="&#xb3;" horiz-adv-x="806" d="M45 879l154 53q57 -106 204 -107q70 0 112 34t42 85q0 49 -37 77t-100 28h-115v151h109q45 0 84 26.5t39 78.5q0 53 -43 80.5t-107 27.5q-129 0 -192 -98l-136 74q119 182 340 182q133 0 222.5 -64.5t89.5 -181.5q0 -125 -101 -184q127 -49 127 -203q0 -119 -92 -194.5 t-242 -75.5q-260 0 -358 211z" />
<glyph unicode="&#xb4;" horiz-adv-x="657" d="M186 1237q125 150 176 258l201 -33q-33 -74 -117 -154.5t-174 -129.5z" />
<glyph unicode="&#xb5;" d="M123 -356v1431h225v-647q0 -254 209 -254q113 0 188.5 77t75.5 214v610h226v-827q0 -96 65 -96q35 0 51 12l21 -158q-45 -23 -123 -22q-84 0 -141.5 42t-69.5 121q-111 -172 -303 -172q-135 0 -199 93v-424h-225z" />
<glyph unicode="&#x3bc;" d="M123 -356v1431h225v-647q0 -254 209 -254q113 0 188.5 77t75.5 214v610h226v-827q0 -96 65 -96q35 0 51 12l21 -158q-45 -23 -123 -22q-84 0 -141.5 42t-69.5 121q-111 -172 -303 -172q-135 0 -199 93v-424h-225z" />
<glyph unicode="&#xb6;" horiz-adv-x="1153" d="M72 936q0 193 123.5 310.5t306.5 117.5h493v-1550h-106v1409h-127v-1409h-156v692h-104q-186 0 -308 117.5t-122 312.5z" />
<glyph unicode="&#xb7;" horiz-adv-x="540" d="M119 623q0 63 45 108t108 45q61 0 105.5 -45t44.5 -108q0 -61 -44 -106.5t-106 -45.5q-63 0 -108 45.5t-45 106.5z" />
<glyph unicode="&#xb8;" horiz-adv-x="657" d="M92 -154q61 -61 144 -61q45 0 73.5 22.5t28.5 63.5q0 78 -105 139l62 35q88 -31 141 -89t53 -128q0 -80 -64.5 -130t-162.5 -50q-113 0 -170 53v145z" />
<glyph unicode="&#xb9;" horiz-adv-x="567" d="M16 1446q199 33 283 108h131v-870h-176v674q-86 -33 -215 -49z" />
<glyph unicode="&#xba;" horiz-adv-x="886" d="M78 1018q0 160 99 260t265 100t266.5 -100t100.5 -260q0 -158 -100.5 -259.5t-266.5 -101.5t-265 100.5t-99 260.5zM254 1018q0 -92 51 -151.5t137 -59.5q90 0 139.5 59.5t49.5 151.5q0 94 -49.5 153.5t-139.5 59.5q-88 0 -138 -59.5t-50 -153.5z" />
<glyph unicode="&#xbb;" horiz-adv-x="987" d="M92 186l242 351l-242 350l123 92l307 -401v-80l-307 -404zM500 186l243 351l-243 350l123 92l307 -401v-80l-307 -404z" />
<glyph unicode="&#xbc;" horiz-adv-x="2004" d="M100 1255q199 33 283 109h131v-870h-176v673q-86 -33 -215 -49zM393 0l961 1364h170l-961 -1364h-170zM1159 188v136q72 125 119 274.5t49 271.5h172q-6 -252 -160 -530h252v330h168v-330h125v-152h-125v-188h-170v188h-430z" />
<glyph unicode="&#xbd;" horiz-adv-x="2004" d="M98 1255q199 33 283 109h131v-870h-176v673q-86 -33 -215 -49zM391 0l961 1364h170l-961 -1364h-170zM1182 696q131 190 336 191q143 0 232 -75t89 -204q0 -106 -73.5 -200.5t-276.5 -249.5h385v-158h-664v131q258 197 351.5 293t93.5 176q0 59 -43 94t-107 35 q-117 0 -184 -113z" />
<glyph unicode="&#xbe;" horiz-adv-x="2004" d="M76 688l153 53q57 -106 205 -106q70 0 112 33.5t42 85.5q0 49 -37 76.5t-100 27.5h-115v152h108q45 0 84 26.5t39 77.5q0 53 -43 81t-104 28q-131 0 -195 -99l-135 74q119 182 338 182q135 0 224 -64.5t89 -180.5q0 -127 -100 -185q127 -49 127 -202q0 -117 -93 -194 t-241 -77q-260 0 -358 211zM451 0l960 1364h170l-960 -1364h-170zM1217 188v136q72 125 118.5 274.5t48.5 271.5h172q-6 -252 -159 -530h252v330h168v-330h125v-152h-125v-188h-170v188h-430z" />
<glyph unicode="&#xbf;" horiz-adv-x="1083" d="M109 104q0 178 116.5 291t300.5 144v108h224v-303q-37 10 -91 10q-137 0 -221 -63.5t-84 -177.5q0 -98 67.5 -157.5t182.5 -59.5q172 0 307 124l131 -155q-207 -180 -460 -180q-207 0 -340 113t-133 306zM506 834v241h262v-241h-262z" />
<glyph unicode="&#xc0;" horiz-adv-x="1384" d="M16 0l535 1364h283l534 -1364h-268l-129 348h-565l-130 -348h-260zM434 1720l201 33q51 -109 176 -258l-86 -59q-90 49 -174 129.5t-117 154.5zM469 549h436l-215 604z" />
<glyph unicode="&#xc1;" horiz-adv-x="1384" d="M16 0l535 1364h283l534 -1364h-268l-129 348h-565l-130 -348h-260zM469 549h436l-215 604zM590 1495q125 150 176 258l201 -33q-33 -74 -117 -154.5t-174 -129.5z" />
<glyph unicode="&#xc2;" horiz-adv-x="1384" d="M16 0l535 1364h283l534 -1364h-268l-129 348h-565l-130 -348h-260zM344 1540q143 94 262 203h168q125 -111 262 -203l-57 -96q-168 49 -289 151q-117 -102 -289 -151zM469 549h436l-215 604z" />
<glyph unicode="&#xc3;" horiz-adv-x="1384" d="M16 0l535 1364h283l534 -1364h-268l-129 348h-565l-130 -348h-260zM342 1528q31 80 90.5 130t128.5 50q51 0 140.5 -39t127.5 -39q74 0 140 80l86 -57q-33 -82 -91.5 -132.5t-127.5 -50.5q-53 0 -141.5 40t-125.5 40q-80 0 -141 -80zM469 549h436l-215 604z" />
<glyph unicode="&#xc4;" horiz-adv-x="1384" d="M16 0l535 1364h283l534 -1364h-268l-129 348h-565l-130 -348h-260zM377 1475v186h182v-186h-182zM469 549h436l-215 604zM819 1475v186h180v-186h-180z" />
<glyph unicode="&#xc5;" horiz-adv-x="1372" d="M10 0l508 1290q-84 63 -84 166q0 96 74 165t178 69q106 0 180 -69t74 -165q0 -102 -84 -166l506 -1290h-268l-129 348h-566l-129 -348h-260zM463 549h436l-215 604zM571 1454q0 -47 34 -80t83 -33t81 33t32 80q0 49 -32 84t-81 35t-83 -35t-34 -84z" />
<glyph unicode="&#xc6;" horiz-adv-x="1910" d="M-14 0l696 1364h1120v-209h-647v-334h551v-209h-551v-403h668v-209h-910v606q-399 -59 -581 -436l-86 -170h-260zM578 680q147 96 335 127v371h-88z" />
<glyph unicode="&#xc7;" horiz-adv-x="1388" d="M90 684q0 309 185.5 507t484.5 198q367 0 559 -297l-189 -121q-127 205 -364 205q-193 0 -309.5 -135.5t-116.5 -354.5q0 -223 115.5 -360.5t308.5 -137.5q233 0 364 215l199 -114q-174 -285 -500 -312q76 -66 76 -149q0 -80 -64.5 -130t-162.5 -50q-113 0 -170 53v145 q61 -61 143 -61q45 0 74 22.5t29 63.5q0 55 -60 109q-272 23 -437 217t-165 487z" />
<glyph unicode="&#xc8;" horiz-adv-x="1271" d="M170 0v1364h993v-209h-753v-332h655v-209h-655v-405h774v-209h-1014zM418 1722l200 33q51 -109 177 -258l-86 -59q-90 49 -174 129.5t-117 154.5z" />
<glyph unicode="&#xc9;" horiz-adv-x="1271" d="M170 0v1364h993v-209h-753v-332h655v-209h-655v-405h774v-209h-1014zM588 1497q125 150 176 258l201 -33q-33 -74 -117 -154.5t-174 -129.5z" />
<glyph unicode="&#xca;" horiz-adv-x="1271" d="M170 0v1364h993v-209h-753v-332h655v-209h-655v-405h774v-209h-1014zM338 1542q143 94 262 203h168q125 -111 262 -203l-57 -96q-168 49 -289 151q-117 -102 -289 -151z" />
<glyph unicode="&#xcb;" horiz-adv-x="1271" d="M170 0v1364h993v-209h-753v-332h655v-209h-655v-405h774v-209h-1014zM367 1477v186h182v-186h-182zM809 1477v186h180v-186h-180z" />
<glyph unicode="&#xcc;" horiz-adv-x="577" d="M31 1720l200 33q51 -109 177 -258l-86 -59q-90 49 -174 129.5t-117 154.5zM170 0v1364h238v-1364h-238z" />
<glyph unicode="&#xcd;" horiz-adv-x="577" d="M170 0v1364h238v-1364h-238zM172 1495q125 150 176 258l201 -33q-33 -74 -117 -154.5t-174 -129.5z" />
<glyph unicode="&#xce;" horiz-adv-x="577" d="M-57 1540q143 94 262 203h168q125 -111 262 -203l-57 -96q-168 49 -289 151q-117 -102 -289 -151zM170 0v1364h238v-1364h-238z" />
<glyph unicode="&#xcf;" horiz-adv-x="577" d="M-23 1475v186h183v-186h-183zM170 0v1364h238v-1364h-238zM420 1475v186h180v-186h-180z" />
<glyph unicode="&#xd0;" horiz-adv-x="1501" d="M-20 598v193h215v573h550q317 0 491.5 -188.5t174.5 -493.5t-174 -493.5t-492 -188.5h-550v598h-215zM436 209h307q199 0 308.5 125t109.5 348t-109.5 348t-308.5 125h-307v-364h352v-193h-352v-389z" />
<glyph unicode="&#xd1;" horiz-adv-x="1497" d="M170 0v1364h303l625 -1032v1032h229v-1364h-287l-641 1057v-1057h-229zM412 1528q31 80 90 130t129 50q51 0 140 -39t128 -39q74 0 139 80l86 -57q-33 -82 -91 -132.5t-128 -50.5q-53 0 -141 40t-125 40q-80 0 -141 -80z" />
<glyph unicode="&#xd2;" horiz-adv-x="1527" d="M86 682q0 305 185.5 506t492.5 201t492.5 -201t185.5 -506t-185.5 -506t-492.5 -201t-492.5 201t-185.5 506zM336 682q0 -215 114.5 -350t313.5 -135q197 0 312.5 135t115.5 350t-115.5 350t-312.5 135q-199 0 -313.5 -135t-114.5 -350zM510 1720l201 33 q51 -109 176 -258l-86 -59q-90 49 -174 129.5t-117 154.5z" />
<glyph unicode="&#xd3;" horiz-adv-x="1527" d="M86 682q0 305 185.5 506t492.5 201t492.5 -201t185.5 -506t-185.5 -506t-492.5 -201t-492.5 201t-185.5 506zM336 682q0 -215 114.5 -350t313.5 -135q197 0 312.5 135t115.5 350t-115.5 350t-312.5 135q-199 0 -313.5 -135t-114.5 -350zM664 1495q125 150 176 258 l200 -33q-33 -74 -116.5 -154.5t-173.5 -129.5z" />
<glyph unicode="&#xd4;" horiz-adv-x="1527" d="M86 682q0 305 185.5 506t492.5 201t492.5 -201t185.5 -506t-185.5 -506t-492.5 -201t-492.5 201t-185.5 506zM336 682q0 -215 114.5 -350t313.5 -135q197 0 312.5 135t115.5 350t-115.5 350t-312.5 135q-199 0 -313.5 -135t-114.5 -350zM418 1540q143 94 262 203h168 q125 -111 262 -203l-57 -96q-168 49 -289 151q-117 -102 -289 -151z" />
<glyph unicode="&#xd5;" horiz-adv-x="1527" d="M86 682q0 305 185.5 506t492.5 201t492.5 -201t185.5 -506t-185.5 -506t-492.5 -201t-492.5 201t-185.5 506zM336 682q0 -215 114.5 -350t313.5 -135q197 0 312.5 135t115.5 350t-115.5 350t-312.5 135q-199 0 -313.5 -135t-114.5 -350zM410 1528q31 80 90 130t129 50 q51 0 140 -39t128 -39q74 0 139 80l86 -57q-33 -82 -91 -132.5t-128 -50.5q-53 0 -141 40t-125 40q-80 0 -141 -80z" />
<glyph unicode="&#xd6;" horiz-adv-x="1527" d="M86 682q0 305 185.5 506t492.5 201t492.5 -201t185.5 -506t-185.5 -506t-492.5 -201t-492.5 201t-185.5 506zM336 682q0 -215 114.5 -350t313.5 -135q197 0 312.5 135t115.5 350t-115.5 350t-312.5 135q-199 0 -313.5 -135t-114.5 -350zM451 1475v186h182v-186h-182z M893 1475v186h180v-186h-180z" />
<glyph unicode="&#xd7;" d="M106 266l359 357l-359 356l138 137l358 -356l356 356l136 -137l-357 -356l357 -357l-136 -137l-356 356l-358 -356z" />
<glyph unicode="&#xd8;" horiz-adv-x="1527" d="M86 682q0 305 185.5 506t492.5 201q197 0 350 -91l66 93l108 -76l-67 -94q221 -199 221 -539q0 -305 -185.5 -506t-492.5 -201q-203 0 -352 91l-64 -93l-108 76l65 92q-219 197 -219 541zM336 682q0 -211 108 -342l537 770q-96 57 -217 57q-199 0 -313.5 -135 t-114.5 -350zM545 254q92 -57 219 -57q197 0 312.5 135t115.5 350q0 207 -111 340z" />
<glyph unicode="&#xd9;" horiz-adv-x="1456" d="M156 518v846h239v-846q0 -150 87 -235.5t245 -85.5q156 0 246 86t90 235v846h237v-846q0 -252 -158.5 -397.5t-414.5 -145.5q-258 0 -414.5 145.5t-156.5 397.5zM479 1720l201 33q51 -109 176 -258l-86 -59q-90 49 -174 129.5t-117 154.5z" />
<glyph unicode="&#xda;" horiz-adv-x="1456" d="M156 518v846h239v-846q0 -150 87 -235.5t245 -85.5q156 0 246 86t90 235v846h237v-846q0 -252 -158.5 -397.5t-414.5 -145.5q-258 0 -414.5 145.5t-156.5 397.5zM625 1495q125 150 176 258l200 -33q-33 -74 -116.5 -154.5t-173.5 -129.5z" />
<glyph unicode="&#xdb;" horiz-adv-x="1456" d="M156 518v846h239v-846q0 -150 87 -235.5t245 -85.5q156 0 246 86t90 235v846h237v-846q0 -252 -158.5 -397.5t-414.5 -145.5q-258 0 -414.5 145.5t-156.5 397.5zM383 1540q143 94 262 203h168q125 -111 262 -203l-57 -96q-168 49 -289 151q-117 -102 -289 -151z" />
<glyph unicode="&#xdc;" horiz-adv-x="1456" d="M156 518v846h239v-846q0 -150 87 -235.5t245 -85.5q156 0 246 86t90 235v846h237v-846q0 -252 -158.5 -397.5t-414.5 -145.5q-258 0 -414.5 145.5t-156.5 397.5zM418 1475v186h182v-186h-182zM860 1475v186h180v-186h-180z" />
<glyph unicode="&#xdd;" horiz-adv-x="1294" d="M4 1364h281l364 -602l367 602h276l-526 -819v-545h-240v545zM510 1495q125 150 176 258l201 -33q-33 -74 -117 -154.5t-174 -129.5z" />
<glyph unicode="&#xde;" horiz-adv-x="1312" d="M170 0v1364h240v-193h354q231 0 363.5 -118.5t132.5 -319.5t-131.5 -318.5t-364.5 -117.5h-354v-297h-240zM410 506h352q123 0 187.5 59.5t64.5 167.5q0 111 -64.5 170.5t-187.5 59.5h-352v-457z" />
<glyph unicode="&#xdf;" horiz-adv-x="1300" d="M150 0v1073q0 190 133 302t358 112q211 0 347 -100.5t136 -276.5q0 -207 -196 -311q293 -90 293 -383q0 -205 -132.5 -323t-353.5 -118q-143 0 -243 41l47 199q66 -39 170 -39q127 0 200.5 68.5t73.5 189.5q0 246 -303 246h-121v192h88q109 0 177.5 53.5t68.5 155.5 q0 106 -72.5 158.5t-187.5 52.5t-187.5 -58t-72.5 -163v-1071h-223z" />
<glyph unicode="&#xe0;" horiz-adv-x="1355" d="M82 537q0 246 134 404.5t359 158.5q227 0 363 -182v157h227v-825q0 -53 17.5 -75.5t56.5 -22.5t59 14l27 -156q-55 -27 -137 -26q-193 0 -236 170q-125 -178 -372 -179q-229 0 -363.5 159t-134.5 403zM322 536.5q0 -157.5 77.5 -258t225.5 -100.5q150 0 231.5 101.5 t81.5 257.5q0 158 -83 259t-230.5 101t-225 -101.5t-77.5 -259zM383 1462l201 33q51 -109 176 -258l-86 -59q-90 49 -174 129.5t-117 154.5z" />
<glyph unicode="&#xe1;" horiz-adv-x="1355" d="M82 537q0 246 134 404.5t359 158.5q227 0 363 -182v157h227v-825q0 -53 17.5 -75.5t56.5 -22.5t59 14l27 -156q-55 -27 -137 -26q-193 0 -236 170q-125 -178 -372 -179q-229 0 -363.5 159t-134.5 403zM322 536.5q0 -157.5 77.5 -258t225.5 -100.5q150 0 231.5 101.5 t81.5 257.5q0 158 -83 259t-230.5 101t-225 -101.5t-77.5 -259zM514 1237q125 150 176 258l201 -33q-33 -74 -117 -154.5t-174 -129.5z" />
<glyph unicode="&#xe2;" horiz-adv-x="1355" d="M82 537q0 246 134 404.5t359 158.5q227 0 363 -182v157h227v-825q0 -53 17.5 -75.5t56.5 -22.5t59 14l27 -156q-55 -27 -137 -26q-193 0 -236 170q-125 -178 -372 -179q-229 0 -363.5 159t-134.5 403zM279 1282q143 94 262 203h168q125 -111 262 -203l-58 -96 q-168 49 -288 151q-117 -102 -289 -151zM322 536.5q0 -157.5 77.5 -258t225.5 -100.5q150 0 231.5 101.5t81.5 257.5q0 158 -83 259t-230.5 101t-225 -101.5t-77.5 -259z" />
<glyph unicode="&#xe3;" horiz-adv-x="1355" d="M82 537q0 246 134 404.5t359 158.5q227 0 363 -182v157h227v-825q0 -53 17.5 -75.5t56.5 -22.5t59 14l27 -156q-55 -27 -137 -26q-193 0 -236 170q-125 -178 -372 -179q-229 0 -363.5 159t-134.5 403zM270 1270q31 80 90.5 130t128.5 50q51 0 140.5 -39t128.5 -39 q74 0 139 80l86 -57q-33 -82 -91 -132.5t-128 -50.5q-53 0 -141 40t-125 40q-80 0 -142 -80zM322 536.5q0 -157.5 77.5 -258t225.5 -100.5q150 0 231.5 101.5t81.5 257.5q0 158 -83 259t-230.5 101t-225 -101.5t-77.5 -259z" />
<glyph unicode="&#xe4;" horiz-adv-x="1355" d="M82 537q0 246 134 404.5t359 158.5q227 0 363 -182v157h227v-825q0 -53 17.5 -75.5t56.5 -22.5t59 14l27 -156q-55 -27 -137 -26q-193 0 -236 170q-125 -178 -372 -179q-229 0 -363.5 159t-134.5 403zM313 1217v186h183v-186h-183zM322 536.5q0 -157.5 77.5 -258 t225.5 -100.5q150 0 231.5 101.5t81.5 257.5q0 158 -83 259t-230.5 101t-225 -101.5t-77.5 -259zM756 1217v186h180v-186h-180z" />
<glyph unicode="&#xe5;" horiz-adv-x="1355" d="M82 537q0 246 134 404.5t359 158.5q227 0 363 -182v157h227v-825q0 -53 17.5 -75.5t56.5 -22.5t59 14l27 -156q-55 -27 -137 -26q-193 0 -236 170q-125 -178 -372 -179q-229 0 -363.5 159t-134.5 403zM322 536.5q0 -157.5 77.5 -258t225.5 -100.5q150 0 231.5 101.5 t81.5 257.5q0 158 -83 259t-230.5 101t-225 -101.5t-77.5 -259zM397 1386.5q0 88.5 66.5 152t165.5 63.5q96 0 162.5 -63.5t66.5 -152t-65.5 -149.5t-164 -61t-165 61t-66.5 149.5zM516 1386q0 -45 33 -77.5t80 -32.5q45 0 77.5 32.5t32.5 78t-32.5 79t-77.5 33.5 q-47 0 -80 -33t-33 -80z" />
<glyph unicode="&#xe6;" horiz-adv-x="2062" d="M82 539q0 242 135 401.5t358 159.5q227 0 363 -182v157h227v-135q131 160 334 160q223 0 356.5 -152.5t133.5 -392.5q0 -35 -4 -72h-820q8 -145 96.5 -227t231.5 -82q184 0 309 135l150 -139q-184 -195 -467 -195q-313 0 -451 230q-63 -106 -173.5 -168t-252.5 -62 q-240 0 -383 157t-143 407zM322 536.5q0 -157.5 77.5 -258t225.5 -100.5q150 0 231.5 101.5t81.5 257.5q0 158 -83 259t-230.5 101t-225 -101.5t-77.5 -259zM1167 641h592q-10 133 -92 205t-203 72q-125 0 -206 -76t-91 -201z" />
<glyph unicode="&#xe7;" horiz-adv-x="1124" d="M82 537q0 246 146.5 404.5t385.5 158.5q289 0 445 -240l-170 -121q-90 162 -264 162q-139 0 -221 -102.5t-82 -259.5q0 -160 82.5 -262.5t222.5 -102.5q166 0 268 156l170 -117q-135 -205 -381 -233q78 -68 78 -152q0 -80 -64.5 -130t-162.5 -50q-113 0 -170 53v145 q61 -61 143 -61q45 0 73.5 22.5t28.5 63.5q0 55 -59 109q-215 20 -342 175t-127 382z" />
<glyph unicode="&#xe8;" horiz-adv-x="1222" d="M82 532.5q0 245.5 146.5 406.5t394.5 161q240 0 382 -151.5t142 -389.5q0 -41 -4 -78h-819q8 -145 96 -225t233 -80q186 0 312 135l147 -141q-184 -195 -467 -195q-264 0 -413.5 156t-149.5 401.5zM328 645h592q-12 131 -93.5 202t-201.5 71q-127 0 -207 -76t-90 -197z M367 1462l200 33q51 -109 176 -258l-86 -59q-90 49 -173.5 129.5t-116.5 154.5z" />
<glyph unicode="&#xe9;" horiz-adv-x="1222" d="M82 532.5q0 245.5 146.5 406.5t394.5 161q240 0 382 -151.5t142 -389.5q0 -41 -4 -78h-819q8 -145 96 -225t233 -80q186 0 312 135l147 -141q-184 -195 -467 -195q-264 0 -413.5 156t-149.5 401.5zM328 645h592q-12 131 -93.5 202t-201.5 71q-127 0 -207 -76t-90 -197z M504 1237q125 150 176 258l201 -33q-33 -74 -117 -154.5t-174 -129.5z" />
<glyph unicode="&#xea;" horiz-adv-x="1222" d="M82 532.5q0 245.5 146.5 406.5t394.5 161q240 0 382 -151.5t142 -389.5q0 -41 -4 -78h-819q8 -145 96 -225t233 -80q186 0 312 135l147 -141q-184 -195 -467 -195q-264 0 -413.5 156t-149.5 401.5zM270 1282q143 94 262 203h168q125 -111 263 -203l-58 -96 q-168 49 -289 151q-117 -102 -288 -151zM328 645h592q-12 131 -93.5 202t-201.5 71q-127 0 -207 -76t-90 -197z" />
<glyph unicode="&#xeb;" horiz-adv-x="1222" d="M82 532.5q0 245.5 146.5 406.5t394.5 161q240 0 382 -151.5t142 -389.5q0 -41 -4 -78h-819q8 -145 96 -225t233 -80q186 0 312 135l147 -141q-184 -195 -467 -195q-264 0 -413.5 156t-149.5 401.5zM309 1217v186h183v-186h-183zM328 645h592q-12 131 -93.5 202t-201.5 71 q-127 0 -207 -76t-90 -197zM752 1217v186h180v-186h-180z" />
<glyph unicode="&#xec;" horiz-adv-x="524" d="M2 1462l201 33q51 -109 176 -258l-86 -59q-90 49 -174 129.5t-117 154.5zM150 0v1075h225v-1075h-225z" />
<glyph unicode="&#xed;" horiz-adv-x="524" d="M147 1237q125 150 177 258l200 -33q-33 -74 -116.5 -154.5t-174.5 -129.5zM150 0v1075h225v-1075h-225z" />
<glyph unicode="&#xee;" horiz-adv-x="524" d="M-84 1282q143 94 262 203h168q125 -111 262 -203l-57 -96q-168 49 -289 151q-117 -102 -289 -151zM150 0v1075h225v-1075h-225z" />
<glyph unicode="&#xef;" horiz-adv-x="524" d="M-14 1217v186h180v-186h-180zM150 0v1075h225v-1075h-225zM358 1217v186h183v-186h-183z" />
<glyph unicode="&#xf0;" horiz-adv-x="1273" d="M84 498q0 225 136 372.5t351 147.5q184 0 301 -111q-68 137 -213 273l-253 -115l-41 96l194 90q-90 63 -170 101l170 135q137 -78 219 -148l248 111l41 -96l-199 -90q303 -303 303 -693q0 -289 -153 -444q-152 -152 -393.5 -152t-391 147t-149.5 376zM324 495.5 q0 -141.5 79.5 -232.5t225.5 -91q150 0 232.5 92t82.5 232q0 141 -85 234t-232 93q-143 0 -223 -93t-80 -234.5z" />
<glyph unicode="&#xf1;" horiz-adv-x="1234" d="M150 0v1075h225v-157q137 182 352 182q174 0 272.5 -107.5t98.5 -292.5v-700h-226v649q0 244 -213 244q-123 0 -203.5 -80t-80.5 -211v-602h-225zM299 1270q31 80 90.5 130t128.5 50q51 0 140.5 -39t127.5 -39q74 0 140 80l86 -57q-33 -82 -91.5 -132.5t-127.5 -50.5 q-53 0 -141.5 40t-125.5 40q-80 0 -141 -80z" />
<glyph unicode="&#xf2;" horiz-adv-x="1253" d="M82 537q0 250 148.5 406.5t396 156.5t396 -157t148.5 -406q0 -248 -148.5 -405t-396 -157t-396 157t-148.5 405zM322 537q0 -160 81.5 -262.5t223 -102.5t222.5 102.5t81 262.5q0 162 -81 264t-222.5 102t-223 -102t-81.5 -264zM389 1462l201 33q51 -109 176 -258 l-86 -59q-90 49 -174 129.5t-117 154.5z" />
<glyph unicode="&#xf3;" horiz-adv-x="1253" d="M82 537q0 250 148.5 406.5t396 156.5t396 -157t148.5 -406q0 -248 -148.5 -405t-396 -157t-396 157t-148.5 405zM322 537q0 -160 81.5 -262.5t223 -102.5t222.5 102.5t81 262.5q0 162 -81 264t-222.5 102t-223 -102t-81.5 -264zM489 1237q125 150 177 258l200 -33 q-33 -74 -116.5 -154.5t-174.5 -129.5z" />
<glyph unicode="&#xf4;" horiz-adv-x="1253" d="M82 537q0 250 148.5 406.5t396 156.5t396 -157t148.5 -406q0 -248 -148.5 -405t-396 -157t-396 157t-148.5 405zM281 1282q143 94 262 203h168q125 -111 262 -203l-58 -96q-168 49 -288 151q-117 -102 -289 -151zM322 537q0 -160 81.5 -262.5t223 -102.5t222.5 102.5 t81 262.5q0 162 -81 264t-222.5 102t-223 -102t-81.5 -264z" />
<glyph unicode="&#xf5;" horiz-adv-x="1253" d="M82 537q0 250 148.5 406.5t396 156.5t396 -157t148.5 -406q0 -248 -148.5 -405t-396 -157t-396 157t-148.5 405zM270 1270q31 80 90.5 130t128.5 50q51 0 140.5 -39t128.5 -39q74 0 139 80l86 -57q-33 -82 -91 -132.5t-128 -50.5q-53 0 -141 40t-125 40q-80 0 -142 -80z M322 537q0 -160 81.5 -262.5t223 -102.5t222.5 102.5t81 262.5q0 162 -81 264t-222.5 102t-223 -102t-81.5 -264z" />
<glyph unicode="&#xf6;" horiz-adv-x="1253" d="M82 537q0 250 148.5 406.5t396 156.5t396 -157t148.5 -406q0 -248 -148.5 -405t-396 -157t-396 157t-148.5 405zM315 1217v186h183v-186h-183zM322 537q0 -160 81.5 -262.5t223 -102.5t222.5 102.5t81 262.5q0 162 -81 264t-222.5 102t-223 -102t-81.5 -264zM758 1217 v186h180v-186h-180z" />
<glyph unicode="&#xf7;" d="M98 526v193h1006v-193h-1006zM457 229.5q0 59.5 42 102.5t103 43q57 0 100 -43t43 -102.5t-43 -102.5t-100 -43q-61 0 -103 43t-42 102.5zM457 1015.5q0 59.5 42 102.5t103 43q57 0 100 -43t43 -102.5t-41.5 -102.5t-101.5 -43q-61 0 -103 43t-42 102.5z" />
<glyph unicode="&#xf8;" horiz-adv-x="1253" d="M82 537q0 250 148.5 406.5t396.5 156.5q147 0 272 -66l47 66l101 -70l-48 -65q172 -156 172 -428q0 -248 -148.5 -405t-395.5 -157q-156 0 -275 66l-45 -66l-100 70l45 64q-170 158 -170 428zM322 537q0 -145 63 -236l395 563q-70 43 -153 43q-143 0 -224 -103t-81 -267z M471 211q66 -43 156 -43q141 0 223 103.5t82 265.5q0 143 -66 237z" />
<glyph unicode="&#xf9;" horiz-adv-x="1234" d="M137 375v700h225v-649q0 -244 213 -244q123 0 204 80t81 211v602h225v-1075h-225v156q-139 -180 -352 -181q-174 0 -272.5 108t-98.5 292zM342 1462l201 33q51 -109 176 -258l-86 -59q-90 49 -174 129.5t-117 154.5z" />
<glyph unicode="&#xfa;" horiz-adv-x="1234" d="M137 375v700h225v-649q0 -244 213 -244q123 0 204 80t81 211v602h225v-1075h-225v156q-139 -180 -352 -181q-174 0 -272.5 108t-98.5 292zM524 1237q125 150 176 258l201 -33q-33 -74 -117 -154.5t-174 -129.5z" />
<glyph unicode="&#xfb;" horiz-adv-x="1234" d="M137 375v700h225v-649q0 -244 213 -244q123 0 204 80t81 211v602h225v-1075h-225v156q-139 -180 -352 -181q-174 0 -272.5 108t-98.5 292zM266 1282q143 94 262 203h168q125 -111 262 -203l-57 -96q-168 49 -289 151q-117 -102 -288 -151z" />
<glyph unicode="&#xfc;" horiz-adv-x="1234" d="M137 375v700h225v-649q0 -244 213 -244q123 0 204 80t81 211v602h225v-1075h-225v156q-139 -180 -352 -181q-174 0 -272.5 108t-98.5 292zM299 1217v186h182v-186h-182zM741 1217v186h181v-186h-181z" />
<glyph unicode="&#xfd;" horiz-adv-x="1236" d="M123 -254l98 174q131 -98 322 -98q143 0 231 67.5t88 206.5v142q-139 -180 -352 -181q-174 0 -272.5 107.5t-98.5 292.5v618h226v-565q0 -246 213 -246q123 0 203.5 80t80.5 211v520h225v-930q0 -244 -116 -368q-147 -154 -428 -154q-246 0 -420 123zM516 1237 q125 150 176 258l201 -33q-33 -74 -117 -154.5t-174 -129.5z" />
<glyph unicode="&#xfe;" horiz-adv-x="1312" d="M150 -356v1818h225v-544q139 182 362 182q225 0 359.5 -159t134.5 -402q0 -246 -134 -405t-360 -159q-223 0 -362 181v-512h-225zM375 536.5q0 -155.5 84 -257t231 -101.5q145 0 223 101.5t78 257.5q0 158 -77.5 259t-223.5 101q-152 0 -233.5 -102.5t-81.5 -258z" />
<glyph unicode="&#xff;" horiz-adv-x="1236" d="M123 -254l98 174q131 -98 322 -98q143 0 231 67.5t88 206.5v142q-139 -180 -352 -181q-174 0 -272.5 107.5t-98.5 292.5v618h226v-565q0 -246 213 -246q123 0 203.5 80t80.5 211v520h225v-930q0 -244 -116 -368q-147 -154 -428 -154q-246 0 -420 123zM299 1217v186h182 v-186h-182zM741 1217v186h181v-186h-181z" />
<glyph unicode="&#x152;" horiz-adv-x="2125" d="M86 682q0 305 185.5 506t490.5 201q106 0 194 -25h1063v-209h-749q127 -129 155 -332h496v-209h-487q-12 -244 -164 -405h770v-209h-1084q-88 -25 -192 -25q-307 0 -492.5 201t-185.5 506zM338 682q0 -215 113.5 -350t312.5 -135t313.5 135t114.5 350t-114.5 350 t-313.5 135t-312.5 -135t-113.5 -350z" />
<glyph unicode="&#x153;" horiz-adv-x="2050" d="M82 537q0 246 144.5 404.5t387.5 158.5q283 0 422 -219q141 219 420 219q238 0 379 -152.5t141 -392.5q0 -18 -6 -74h-817q8 -145 96 -225t234 -80q186 0 307 133l152 -139q-188 -195 -469 -195q-293 0 -437 218q-145 -217 -422 -218q-242 0 -387 159t-145 403zM322 537 q0 -160 79.5 -262.5t219 -102.5t219.5 102.5t80 262.5q0 162 -80 264t-219.5 102t-219 -102t-79.5 -264zM1155 645h592q-12 131 -93 202t-202 71q-125 0 -206 -76t-91 -197z" />
<glyph unicode="&#x178;" horiz-adv-x="1294" d="M4 1364h281l364 -602l367 602h276l-526 -819v-545h-240v545zM334 1475v186h182v-186h-182zM776 1475v186h180v-186h-180z" />
<glyph unicode="&#x2c6;" horiz-adv-x="675" d="M-4 1282q143 94 262 203h168q125 -111 262 -203l-57 -96q-168 49 -289 151q-117 -102 -289 -151z" />
<glyph unicode="&#x2dc;" horiz-adv-x="708" d="M-4 1270q31 80 90 130t129 50q51 0 140 -39t128 -39q74 0 140 80l86 -57q-33 -82 -91.5 -132.5t-128.5 -50.5q-53 0 -141 40t-125 40q-80 0 -141 -80z" />
<glyph unicode="&#x2000;" horiz-adv-x="877" />
<glyph unicode="&#x2001;" horiz-adv-x="1755" />
<glyph unicode="&#x2002;" horiz-adv-x="877" />
<glyph unicode="&#x2003;" horiz-adv-x="1755" />
<glyph unicode="&#x2004;" horiz-adv-x="585" />
<glyph unicode="&#x2005;" horiz-adv-x="438" />
<glyph unicode="&#x2006;" horiz-adv-x="292" />
<glyph unicode="&#x2007;" horiz-adv-x="292" />
<glyph unicode="&#x2008;" horiz-adv-x="219" />
<glyph unicode="&#x2009;" horiz-adv-x="351" />
<glyph unicode="&#x200a;" horiz-adv-x="97" />
<glyph unicode="&#x2010;" horiz-adv-x="819" d="M119 475v201h581v-201h-581z" />
<glyph unicode="&#x2011;" horiz-adv-x="819" d="M119 475v201h581v-201h-581z" />
<glyph unicode="&#x2012;" horiz-adv-x="819" d="M119 475v201h581v-201h-581z" />
<glyph unicode="&#x2013;" d="M98 526v193h1006v-193h-1006z" />
<glyph unicode="&#x2014;" horiz-adv-x="1892" d="M117 526v193h1659v-193h-1659z" />
<glyph unicode="&#x2018;" horiz-adv-x="487" d="M111 809v211q0 209 190 369l78 -89q-129 -96 -129 -215v-41h123v-235h-262z" />
<glyph unicode="&#x2019;" horiz-adv-x="458" d="M102 874q127 94 127 216v38h-120v236h262v-209q0 -211 -191 -371z" />
<glyph unicode="&#x201a;" horiz-adv-x="532" d="M129 -240q127 92 127 215v39h-121v236h262v-209q0 -211 -190 -369z" />
<glyph unicode="&#x201c;" horiz-adv-x="907" d="M111 809v211q0 209 190 369l78 -89q-129 -96 -129 -215v-41h123v-235h-262zM530 809v209q0 211 193 371l76 -89q-127 -94 -127 -215v-41h121v-235h-263z" />
<glyph unicode="&#x201d;" horiz-adv-x="878" d="M102 874q127 94 127 216v38h-120v236h262v-209q0 -211 -191 -371zM524 874q127 96 127 216v38h-121v236h261v-209q0 -211 -191 -371z" />
<glyph unicode="&#x201e;" horiz-adv-x="952" d="M129 -240q127 92 127 215v39h-121v236h262v-209q0 -211 -190 -369zM551 -240q127 94 127 215v39h-121v236h260v-209q0 -211 -190 -369z" />
<glyph unicode="&#x2022;" horiz-adv-x="774" d="M88 682q0 125 87 212t210 87t211 -87t88 -212q0 -123 -88 -210t-211 -87t-210 87t-87 210z" />
<glyph unicode="&#x2026;" horiz-adv-x="1521" d="M133 0v258h262v-258h-262zM631 0v258h260v-258h-260zM1128 0v258h261v-258h-261z" />
<glyph unicode="&#x202f;" horiz-adv-x="351" />
<glyph unicode="&#x2039;" horiz-adv-x="577" d="M55 498v80l310 401l120 -92l-241 -350l241 -351l-120 -92z" />
<glyph unicode="&#x203a;" horiz-adv-x="579" d="M92 186l242 351l-242 350l123 92l307 -401v-80l-307 -404z" />
<glyph unicode="&#x205f;" horiz-adv-x="438" />
<glyph unicode="&#x20ac;" horiz-adv-x="1499" d="M80 492v116h145q-4 41 -4 76q0 29 4 70h-145v114h162q49 238 218 379.5t414 141.5q354 0 541 -297l-184 -121q-125 205 -350 205q-145 0 -247 -82t-142 -226h491v-114h-512q-4 -41 -4 -70q0 -35 4 -76h512v-116h-487q39 -141 140 -222.5t245 -81.5q223 0 348 213 l192 -112q-182 -313 -547 -314q-244 0 -412.5 140.5t-219.5 376.5h-162z" />
<glyph unicode="&#x2122;" horiz-adv-x="1472" d="M90 1245v119h518v-119h-196v-471h-129v471h-193zM698 774v590h181l147 -451l150 451h176v-590h-121v445l-148 -445h-114l-148 445v-445h-123z" />
<glyph unicode="&#xe000;" horiz-adv-x="1075" d="M0 1075h1075v-1075h-1075v1075z" />
<glyph unicode="&#xfb01;" horiz-adv-x="1247" d="M45 901v174h178v96q0 150 91.5 232t254.5 82q113 0 174 -23l-26 -180q-78 20 -129 21q-70 0 -103.5 -29t-33.5 -96v-103h241v-174h-241v-901h-228v901h-178zM872 0v1075h226v-1075h-226zM872 1249v213h226v-213h-226z" />
<glyph unicode="&#xfb02;" horiz-adv-x="1335" d="M45 901v174h178v96q0 150 91.5 232t254.5 82q113 0 174 -23l-26 -180q-78 20 -129 21q-70 0 -103.5 -29t-33.5 -96v-103h241v-174h-241v-901h-228v901h-178zM879 283v1179h225v-1181q0 -113 94 -113q55 0 92 22l43 -172q-63 -39 -174 -38q-164 0 -235 98q-45 66 -45 205z " />
<glyph unicode="&#xfb03;" horiz-adv-x="2011" d="M1637 0v1075h225v-1075h-225zM1637 1249v213h225v-213h-225zM788 901v174h178v96q0 150 91.5 232t254.5 82q113 0 174 -23l-26 -180q-78 20 -129 21q-70 0 -103.5 -29t-33.5 -96v-103h241v-174h-241v-901h-228v901h-178zM45 901v174h178v96q0 150 91.5 232t254.5 82 q113 0 174 -23l-26 -180q-78 20 -129 21q-70 0 -103.5 -29t-33.5 -96v-103h241v-174h-241v-901h-228v901h-178z" />
<glyph unicode="&#xfb04;" horiz-adv-x="2095" d="M1639 283v1179h225v-1181q0 -113 94 -113q55 0 92 22l43 -172q-61 -38 -168 -38h-6q-164 0 -235 98q-45 66 -45 205zM788 901v174h178v96q0 150 91.5 232t254.5 82q113 0 174 -23l-26 -180q-78 20 -129 21q-70 0 -103.5 -29t-33.5 -96v-103h241v-174h-241v-901h-228v901 h-178zM45 901v174h178v96q0 150 91.5 232t254.5 82q113 0 174 -23l-26 -180q-78 20 -129 21q-70 0 -103.5 -29t-33.5 -96v-103h241v-174h-241v-901h-228v901h-178z" />
</font>
</defs>
</svg>
