<?xml version="1.0" standalone="no"?>
<!DOCTYPE svg PUBLIC "-//W3C//DTD SVG 1.1//EN" "http://www.w3.org/Graphics/SVG/1.1/DTD/svg11.dtd" >
<svg xmlns="http://www.w3.org/2000/svg">
<metadata>
This is a custom SVG webfont generated by Font Squirrel.
Copyright   : Copyright c ARS TypeAngus R Shamal 19992010 All rights reserved
</metadata>
<defs>
<font id="ARSMaquetteProLight" horiz-adv-x="1173" >
<font-face units-per-em="2048" ascent="1638" descent="-410" />
<missing-glyph horiz-adv-x="552" />
<glyph unicode=" "  horiz-adv-x="552" />
<glyph unicode="&#x09;" horiz-adv-x="552" />
<glyph unicode="&#xa0;" horiz-adv-x="552" />
<glyph unicode="!" horiz-adv-x="530" d="M186 0v199h158v-199h-158zM186 1069v295h158v-295l-43 -672h-72z" />
<glyph unicode="&#x22;" horiz-adv-x="731" d="M111 1307v57h159v-57l-51 -416h-55zM461 1307v57h157v-57l-51 -416h-55z" />
<glyph unicode="#" horiz-adv-x="1284" d="M80 393v90h254l69 398h-239v90h254l69 393h97l-70 -393h354l70 393h96l-69 -393h239v-90h-254l-69 -398h239v-90h-254l-69 -393h-97l70 393h-354l-70 -393h-96l69 393h-239zM430 483h354l70 398h-354z" />
<glyph unicode="$" d="M66 229l114 86q123 -184 365 -213v547q-94 23 -158.5 45.5t-132.5 64.5t-101.5 107.5t-33.5 153.5q0 166 118.5 263t307.5 106v153h106v-153q260 -29 416 -224l-104 -80q-121 147 -312 175v-494q80 -20 136.5 -38.5t119 -50.5t100 -70t62.5 -96t25 -132 q0 -170 -121 -277.5t-322 -124.5v-178h-106v178q-323 19 -479 252zM260 1036q0 -106 68.5 -154t216.5 -89v473q-123 -4 -204 -60.5t-81 -169.5zM651 102q137 10 218 81t81 190q0 109 -72.5 161t-226.5 91v-523z" />
<glyph unicode="%" horiz-adv-x="1531" d="M74 1059q0 139 86 231t223 92q139 0 225 -92t86 -231q0 -145 -86 -238.5t-225 -93.5q-137 0 -223 93.5t-86 238.5zM172 1059q0 -100 57.5 -167t153.5 -67t153.5 66.5t57.5 167.5q0 96 -58.5 160.5t-152.5 64.5q-96 0 -153.5 -63.5t-57.5 -161.5zM360 0l703 1364h108 l-702 -1364h-109zM838 311q0 139 87 232.5t224 93.5q139 0 224 -92t85 -234q0 -143 -85 -236t-224 -93t-225 93t-86 236zM938 311.5q0 -98.5 58.5 -165t152.5 -66.5q96 0 153.5 65.5t57.5 165.5q0 98 -58.5 163t-152.5 65t-152.5 -64.5t-58.5 -163z" />
<glyph unicode="&#x26;" horiz-adv-x="1339" d="M76 356q0 256 317 389q-90 96 -129 167t-39 161q0 150 98.5 233t254.5 83q160 0 255 -86t95 -220q0 -227 -324 -374l369 -375q92 125 137 282l127 -34q-59 -195 -174 -340l237 -242h-174l-149 150q-190 -174 -438 -175q-201 0 -332 103.5t-131 277.5zM219 369 q0 -121 93.5 -194t242.5 -73q190 0 334 136l-416 421q-254 -106 -254 -290zM356 1073q0 -70 38 -129t126 -149q66 31 104 52t84 56t68.5 78t22.5 94q0 92 -65.5 141.5t-158 49.5t-156 -51.5t-63.5 -141.5z" />
<glyph unicode="'" horiz-adv-x="380" d="M113 1307v57h157v-57l-53 -416h-53z" />
<glyph unicode="(" horiz-adv-x="571" d="M94 621q0 528 348 874l90 -84q-311 -303 -311 -790.5t311 -790.5l-90 -84q-348 349 -348 875z" />
<glyph unicode=")" horiz-adv-x="571" d="M39 -170q311 303 311 790.5t-311 790.5l90 84q348 -348 348 -874q0 -528 -348 -875z" />
<glyph unicode="*" horiz-adv-x="837" d="M94 901q127 76 266 137q-139 61 -266 138l43 75q129 -74 252 -161q-14 143 -14 299h88q0 -156 -14 -299q123 88 251 161l43 -75q-127 -76 -266 -138q139 -61 266 -137l-43 -76q-129 74 -251 162q14 -143 14 -299h-88q0 156 14 299q-123 -88 -252 -162z" />
<glyph unicode="+" d="M115 563v119h411v414h121v-414h412v-119h-412v-411h-121v411h-411z" />
<glyph unicode="," horiz-adv-x="479" d="M141 -242q100 88 101 191v51h-90v176h176v-184q0 -154 -133 -283z" />
<glyph unicode="-" horiz-adv-x="792" d="M135 516v119h522v-119h-522z" />
<glyph unicode="." horiz-adv-x="479" d="M152 0v176h176v-176h-176z" />
<glyph unicode="/" horiz-adv-x="688" d="M68 -221l450 1683h107l-451 -1683h-106z" />
<glyph unicode="0" d="M104 682q0 139 24 258t77 224.5t150.5 165t232.5 59.5t232.5 -59.5t149.5 -165t75.5 -224.5t23.5 -258t-23.5 -258t-75.5 -223.5t-149.5 -165t-232.5 -60.5t-232.5 60.5t-150.5 165t-77 223.5t-24 258zM256 682q0 -578 332 -578q330 0 330 578q0 575 -330 575 q-332 0 -332 -575z" />
<glyph unicode="1" d="M250 1186q287 59 405 178h113v-1364h-147v1178q-51 -31 -153.5 -64t-199.5 -45z" />
<glyph unicode="2" d="M106 1141q172 248 461 248q186 0 310 -113t124 -297q0 -186 -143 -361.5t-518 -482.5h717v-135h-926v117q408 346 562.5 526t154.5 332q0 135 -80 205.5t-211 70.5q-211 0 -336 -190z" />
<glyph unicode="3" d="M88 225l129 80q102 -193 358 -192q150 0 233 75.5t83 202.5q0 117 -83 184.5t-249 67.5h-100v135h108q133 0 209 66.5t76 179.5q0 106 -75 166.5t-206 60.5q-219 0 -340 -157l-106 86q172 209 446 209q188 0 310.5 -99.5t122.5 -255.5q0 -207 -211 -311q127 -49 189 -140 t62 -200q0 -178 -129 -293t-340 -115q-342 0 -487 250z" />
<glyph unicode="4" d="M74 336v129q141 240 216 478.5t75 420.5h147q0 -182 -80 -431t-215 -464h528v586h146v-586h209v-133h-209v-336h-146v336h-671z" />
<glyph unicode="5" d="M100 225l129 80q102 -193 340 -192q156 0 246 84t90 233q0 143 -86 225t-237 82q-201 0 -310 -137l-92 49l45 715h756v-135h-631l-35 -447q127 90 295 90q197 0 323 -121.5t126 -314.5q0 -195 -132 -328t-354 -133q-328 0 -473 250z" />
<glyph unicode="6" d="M109 473.5q0 233.5 133 448.5t370 442h205q-152 -127 -301 -296t-207 -314q55 63 148.5 93t185.5 30q188 0 314 -123t126 -320q0 -203 -135 -331t-354 -128t-352 132.5t-133 366zM260 430q0 -143 90 -230t248 -87t245 87t87 230t-87 229t-245 86t-248 -87t-90 -228z" />
<glyph unicode="7" d="M102 1229v135h973v-131q-80 -98 -165 -223t-183 -296t-166.5 -361.5t-79.5 -352.5h-157q10 158 75.5 343t162.5 357t178 295t165 234h-803z" />
<glyph unicode="8" d="M100 383q0 115 62.5 211t189.5 149q-201 92 -200 291q0 156 122.5 255.5t311 99.5t311.5 -99.5t123 -255.5q0 -199 -201 -291q127 -53 189.5 -149t62.5 -211q0 -178 -132 -293t-353 -115t-353.5 115t-132.5 293zM254 391q0 -129 87 -203.5t244.5 -74.5t245 74.5 t87.5 203.5q0 127 -83 201t-249 74t-249 -74t-83 -201zM303 1024q0 -104 75 -163.5t208 -59.5t207.5 59.5t74.5 163.5q0 106 -75.5 166.5t-206.5 60.5t-207 -60.5t-76 -166.5z" />
<glyph unicode="9" d="M90 930q0 203 135 331t354.5 128t352.5 -132.5t133 -366t-133 -448.5t-371 -442h-205q152 127 301.5 296t206.5 314q-55 -63 -148 -93t-186 -30q-188 0 -314 123t-126 320zM244 934q0 -143 87 -229.5t244.5 -86.5t247.5 87.5t90 228.5q0 143 -90 230t-247.5 87 t-244.5 -87t-87 -230z" />
<glyph unicode=":" horiz-adv-x="598" d="M211 0v176h176v-176h-176zM211 879v176h176v-176h-176z" />
<glyph unicode=";" horiz-adv-x="598" d="M201 -242q100 88 100 191v51h-90v176h176v-184q0 -154 -133 -283zM211 879v176h176v-176h-176z" />
<glyph unicode="&#x3c;" d="M238 625l555 555l81 -82l-471 -473l471 -471l-81 -82z" />
<glyph unicode="=" d="M115 369v120h944v-120h-944zM115 758v119h944v-119h-944z" />
<glyph unicode="&#x3e;" d="M297 154l473 471l-473 473l80 82l557 -555l-557 -553z" />
<glyph unicode="?" horiz-adv-x="1005" d="M63 1225q190 164 410 164q188 0 314 -109t126 -291q0 -176 -119.5 -286.5t-316.5 -127.5v-178h-121v295q23 -4 58 -4q156 0 254 80t98 215q0 119 -78 194.5t-221 75.5q-170 0 -322 -131zM334 0v199h158v-199h-158z" />
<glyph unicode="@" horiz-adv-x="1714" d="M90 614.5q0 323.5 220 549t554 225.5t554 -222.5t220 -529.5q0 -188 -87 -299t-228 -111q-164 0 -223 140q-100 -145 -281 -146q-154 0 -249 111.5t-95 279.5t95.5 278.5t254.5 110.5q154 0 252 -116v100h121v-528q0 -129 123 -129q98 0 148.5 77.5t50.5 212.5 q0 276 -185.5 467t-468 191t-469 -193.5t-186.5 -468t185.5 -466t467.5 -191.5q176 0 322 82l55 -98q-182 -96 -383 -97q-330 0 -549 223.5t-219 547zM604 612.5q0 -120.5 60.5 -198.5t173.5 -78q115 0 177 79t62 197q0 121 -63.5 198t-177.5 77q-113 0 -172.5 -77 t-59.5 -197.5z" />
<glyph unicode="A" horiz-adv-x="1351" d="M29 0l565 1364h164l565 -1364h-162l-166 410h-649l-166 -410h-151zM401 545h541l-266 674z" />
<glyph unicode="B" horiz-adv-x="1339" d="M195 0v1364h542q207 0 319.5 -83t112.5 -234q0 -197 -178 -297q238 -98 238 -361q0 -168 -114 -278.5t-331 -110.5h-589zM338 135h446q141 0 217 67.5t76 190.5q0 119 -71.5 191.5t-210.5 72.5h-457v-522zM338 791h414q129 0 200.5 63.5t71.5 171.5q0 203 -287 203h-399 v-438z" />
<glyph unicode="C" horiz-adv-x="1359" d="M106 682q0 307 180.5 507t473.5 200q326 0 514 -252l-113 -88q-138 202 -396 202h-3q-227 0 -364.5 -154.5t-137.5 -412.5q0 -260 137.5 -415.5t360.5 -155.5q264 0 403 204l119 -88q-184 -254 -518 -254q-295 0 -475.5 200t-180.5 507z" />
<glyph unicode="D" horiz-adv-x="1468" d="M195 0v1364h514q303 0 476 -190.5t173 -491.5t-173 -491.5t-476 -190.5h-514zM340 135h369q238 0 366.5 148.5t128.5 398.5q0 252 -129 399.5t-366 147.5h-369v-1094z" />
<glyph unicode="E" horiz-adv-x="1261" d="M195 0v1364h940v-135h-795v-438h692v-134h-692v-522h815v-135h-960z" />
<glyph unicode="F" horiz-adv-x="1218" d="M195 0v1364h958v-135h-813v-438h690v-134h-690v-657h-145z" />
<glyph unicode="G" horiz-adv-x="1472" d="M106 684q0 307 180.5 506t475.5 199q326 0 512 -252l-115 -86q-136 200 -398 200h-3q-229 0 -363.5 -155.5t-134.5 -411.5t135 -413.5t367 -157.5q199 0 328 118.5t141 317.5h-422v135h567q6 -37 6 -86q0 -262 -167.5 -442.5t-450.5 -180.5q-297 0 -477.5 201t-180.5 508 z" />
<glyph unicode="H" horiz-adv-x="1480" d="M195 0v1364h143v-573h805v573h143v-1364h-143v657h-805v-657h-143z" />
<glyph unicode="I" horiz-adv-x="532" d="M195 0v1364h143v-1364h-143z" />
<glyph unicode="J" horiz-adv-x="989" d="M39 150l115 81q91 -118 246 -118h3q260 0 261 299v817h-412v135h557v-952q0 -207 -114.5 -322t-305.5 -115q-229 1 -350 175z" />
<glyph unicode="K" horiz-adv-x="1284" d="M195 0v1364h143v-780l713 780h176l-541 -588l594 -776h-182l-508 674l-252 -277v-397h-143z" />
<glyph unicode="L" horiz-adv-x="1148" d="M195 0v1364h143v-1229h780v-135h-923z" />
<glyph unicode="M" horiz-adv-x="1775" d="M195 0v1364h223l473 -1184l475 1184h215v-1364h-141v1214l-486 -1214h-133l-487 1219v-1219h-139z" />
<glyph unicode="N" horiz-adv-x="1480" d="M195 0v1364h184l768 -1163v1163h139v-1364h-168l-786 1192v-1192h-137z" />
<glyph unicode="O" horiz-adv-x="1523" d="M106 682q0 309 180.5 508t475.5 199t475 -199t180 -508q0 -307 -180 -507t-475 -200t-475.5 200t-180.5 507zM260 682q0 -256 135 -412.5t367 -156.5q229 0 365.5 156.5t136.5 412.5t-136.5 412.5t-365.5 156.5q-231 0 -366.5 -155.5t-135.5 -413.5z" />
<glyph unicode="P" horiz-adv-x="1280" d="M195 0v1364h550q225 0 347 -110.5t122 -297t-121.5 -297t-347.5 -110.5h-407v-549h-143zM338 684h410q158 0 236.5 72.5t78.5 199.5t-79 200t-236 73h-410v-545z" />
<glyph unicode="Q" horiz-adv-x="1523" d="M106 682q0 309 180.5 508t475.5 199t475 -199t180 -508q0 -350 -225 -549l158 -188l-107 -88l-164 196q-137 -78 -317 -78q-295 0 -475.5 200t-180.5 507zM260 682q0 -256 135 -412.5t367 -156.5q229 0 365.5 156.5t136.5 412.5t-136.5 412.5t-365.5 156.5 q-231 0 -366.5 -155.5t-135.5 -413.5z" />
<glyph unicode="R" horiz-adv-x="1337" d="M195 0v1364h581q199 0 318.5 -104.5t119.5 -280.5q0 -139 -77.5 -236.5t-210.5 -140.5l325 -602h-164l-309 578h-440v-578h-143zM338 713h440q131 0 208 70.5t77 185.5q0 119 -79 189.5t-212 70.5h-434v-516z" />
<glyph unicode="S" horiz-adv-x="1210" d="M80 236l125 88q68 -106 178.5 -159.5t239.5 -53.5q152 0 243.5 70.5t91.5 193.5q0 51 -19 90t-47 62.5t-83 45t-99 33.5t-126 31q-12 2 -19 4q-94 23 -158.5 45.5t-132 64.5t-102.5 107.5t-35 155.5q0 174 129 274.5t330 100.5q309 0 489 -230l-112 -86 q-141 180 -387 180q-129 0 -215 -54t-86 -169q0 -47 18.5 -84t42 -58.5t74.5 -43t86 -31.5t106 -29q96 -25 150.5 -41t130.5 -50t116 -71.5t69.5 -100t29.5 -140.5q0 -184 -137 -295t-363 -111q-176 0 -312 70t-216 191z" />
<glyph unicode="T" horiz-adv-x="1200" d="M49 1229v135h1102v-135h-479v-1229h-146v1229h-477z" />
<glyph unicode="U" horiz-adv-x="1449" d="M178 508v856h144v-856q0 -178 108.5 -286.5t292.5 -108.5t294.5 108.5t110.5 286.5v856h144v-856q0 -238 -155.5 -385.5t-393.5 -147.5q-240 0 -392.5 146.5t-152.5 386.5z" />
<glyph unicode="V" horiz-adv-x="1265" d="M31 1364h153l449 -1194l459 1194h143l-528 -1364h-148z" />
<glyph unicode="W" horiz-adv-x="1910" d="M57 1364h150l321 -1196l359 1196h147l357 -1198l317 1198h145l-380 -1364h-168l-349 1190l-350 -1190h-172z" />
<glyph unicode="X" horiz-adv-x="1292" d="M20 0l539 709l-500 655h177l411 -559l416 559h168l-496 -655l537 -709h-176l-451 600l-452 -600h-173z" />
<glyph unicode="Y" horiz-adv-x="1218" d="M16 1364h170l426 -666l428 666h164l-522 -797v-567h-147v567z" />
<glyph unicode="Z" horiz-adv-x="1202" d="M84 0v129l834 1100h-801v135h979v-129l-834 -1100h850v-135h-1028z" />
<glyph unicode="[" horiz-adv-x="589" d="M174 -221v1683h397v-121h-270v-1441h270v-121h-397z" />
<glyph unicode="\" horiz-adv-x="688" d="M63 1462h107l451 -1683h-107z" />
<glyph unicode="]" horiz-adv-x="591" d="M18 -100h273v1441h-273v121h400v-1683h-400v121z" />
<glyph unicode="^" d="M57 897l467 467h125l467 -467l-82 -84l-444 449l-451 -449z" />
<glyph unicode="_" horiz-adv-x="1259" d="M18 -154h1223v-102h-1223v102z" />
<glyph unicode="`" horiz-adv-x="653" d="M143 1462l142 23q72 -125 184 -238l-55 -59q-86 53 -164 130.5t-107 143.5z" />
<glyph unicode="a" horiz-adv-x="1318" d="M100 526.5q0 239.5 133.5 396t354.5 156.5q250 0 393 -217v193h131v-830q0 -68 21.5 -98.5t72.5 -30.5q41 0 66 13l18 -109q-43 -16 -104 -16q-82 0 -137.5 47t-63.5 143q-135 -199 -393 -199q-225 0 -358.5 156t-133.5 395.5zM240 528.5q0 -186.5 94 -306.5t270 -120 q178 0 277.5 121t99.5 305.5t-100.5 304t-276.5 119.5t-270 -118.5t-94 -305z" />
<glyph unicode="b" horiz-adv-x="1282" d="M170 0v1462h131v-600q141 217 393 217q223 0 355.5 -155.5t132.5 -395t-133.5 -396.5t-354.5 -157q-250 0 -393 218v-193h-131zM301 526.5q0 -184.5 100.5 -304.5t276.5 -120t270 119t94 305.5t-94 306t-270 119.5q-178 0 -277.5 -120.5t-99.5 -305z" />
<glyph unicode="c" horiz-adv-x="1087" d="M100 528.5q0 239.5 137.5 395t362.5 155.5q258 0 408 -205l-105 -79q-108 159 -299 159h-2q-164 0 -263 -120.5t-99 -305.5q0 -186 98 -307t260 -121q195 0 307 164l105 -80q-152 -209 -412 -209q-223 0 -360.5 157t-137.5 396.5z" />
<glyph unicode="d" horiz-adv-x="1282" d="M100 526.5q0 239.5 133.5 396t354.5 156.5q250 0 393 -217v600h131v-1462h-131v193q-141 -217 -393 -218q-223 0 -355.5 156t-132.5 395.5zM240 528.5q0 -186.5 94 -306.5t270 -120q178 0 277.5 121t99.5 305.5t-100.5 304t-276.5 119.5t-270 -118.5t-94 -305z" />
<glyph unicode="e" horiz-adv-x="1181" d="M100 524q0 238 138.5 396.5t365.5 158.5q221 0 356.5 -149.5t135.5 -370.5q0 -37 -4 -61h-852q8 -182 112.5 -288t274.5 -106q190 0 319 144l92 -92q-164 -180 -411 -181q-242 0 -384.5 154.5t-142.5 394.5zM244 610h712q-14 164 -113.5 254t-242.5 90q-152 0 -248 -96 t-108 -248z" />
<glyph unicode="f" horiz-adv-x="690" d="M57 934v121h187v153q0 143 77.5 210t213.5 67q102 0 151 -23l-20 -114q-78 18 -131 18q-82 0 -121 -36t-39 -120v-155h258v-121h-258v-934h-131v934h-187z" />
<glyph unicode="g" horiz-adv-x="1286" d="M104 559q0 227 138.5 373.5t349.5 146.5q123 0 228.5 -54t166.5 -163v193h131v-899q0 -242 -110 -369q-141 -164 -428 -164q-252 0 -433 131l80 111q158 -115 359 -115q182 0 291.5 95.5t109.5 289.5v129q-61 -106 -170.5 -161.5t-234.5 -55.5q-209 0 -343.5 144.5 t-134.5 367.5zM244 563q0 -168 94 -279.5t272 -111.5q176 0 277.5 111.5t101.5 279.5t-100.5 277.5t-278.5 109.5t-272 -109.5t-94 -277.5z" />
<glyph unicode="h" horiz-adv-x="1210" d="M170 0v1462h131v-600q141 217 377 217q172 0 273.5 -105.5t101.5 -299.5v-674h-131v643q0 309 -260 309q-156 0 -258.5 -104.5t-102.5 -267.5v-580h-131z" />
<glyph unicode="i" horiz-adv-x="471" d="M170 0v1055h131v-1055h-131zM170 1298v164h131v-164h-131z" />
<glyph unicode="j" horiz-adv-x="471" d="M-186 -350l34 119q47 -20 113 -21q209 0 209 236v1071h131v-1067q0 -178 -94 -269.5t-248 -91.5q-86 0 -145 23zM170 1298v164h131v-164h-131z" />
<glyph unicode="k" horiz-adv-x="1126" d="M170 0v1462h131v-991l578 584h174l-441 -439l500 -616h-174l-420 530l-217 -217v-313h-131z" />
<glyph unicode="l" horiz-adv-x="534" d="M170 238v1224h131v-1224q0 -74 26.5 -105t80.5 -31q59 0 88 25l34 -117q-45 -28 -124 -28h-5q-131 0 -190 81q-41 56 -41 175z" />
<glyph unicode="m" horiz-adv-x="1880" d="M170 0v1055h131v-189q133 213 356 213q248 0 326 -225q141 225 381 225q166 0 262 -103.5t96 -293.5v-682h-131v649q0 303 -241 303q-145 0 -241.5 -102t-96.5 -262v-588h-131v649q0 303 -244 303q-145 0 -240.5 -102t-95.5 -262v-588h-131z" />
<glyph unicode="n" horiz-adv-x="1210" d="M170 0v1055h131v-193q141 217 377 217q172 0 273.5 -105.5t101.5 -299.5v-674h-131v643q0 309 -260 309q-156 0 -258.5 -104.5t-102.5 -267.5v-580h-131z" />
<glyph unicode="o" horiz-adv-x="1210" d="M100 526q0 242 137.5 397.5t367 155.5t367.5 -155.5t138 -397.5q0 -238 -138 -394.5t-367.5 -156.5t-367 155.5t-137.5 395.5zM240 526q0 -182 98 -304t266 -122t266.5 122t98.5 304q0 186 -98.5 307t-266.5 121t-266 -121t-98 -307z" />
<glyph unicode="p" horiz-adv-x="1282" d="M170 -356v1411h131v-193q141 217 393 217q223 0 355.5 -155.5t132.5 -395t-133.5 -396.5t-354.5 -157q-250 0 -393 218v-549h-131zM301 526.5q0 -184.5 100.5 -304.5t276.5 -120t270 119t94 305.5t-94 306t-270 119.5q-178 0 -277.5 -120.5t-99.5 -305z" />
<glyph unicode="q" horiz-adv-x="1282" d="M100 526.5q0 239.5 133.5 396t354.5 156.5q250 0 393 -217v193h131v-1411h-131v549q-141 -217 -393 -218q-223 0 -355.5 156t-132.5 395.5zM240 528.5q0 -186.5 94 -306.5t270 -120q178 0 277.5 121t99.5 305.5t-100.5 304t-276.5 119.5t-270 -118.5t-94 -305z" />
<glyph unicode="r" horiz-adv-x="780" d="M170 0v1055h131v-185q131 205 315 205q86 0 148 -41l-47 -116q-59 30 -119 30h-4q-119 0 -206 -102.5t-87 -280.5v-565h-131z" />
<glyph unicode="s" horiz-adv-x="1028" d="M78 188l104 84q125 -174 346 -174q121 0 197 51.5t76 149.5q0 84 -63.5 115.5t-250.5 70.5q-172 35 -264 97.5t-92 197.5q0 147 109.5 223t267.5 76q244 0 401 -166l-94 -96q-115 139 -309 139q-102 0 -175 -39.5t-73 -123.5q0 -82 67.5 -119t204.5 -64q80 -16 120 -25.5 t104.5 -34t96.5 -53t57.5 -78.5t25.5 -116q0 -147 -109.5 -237.5t-302.5 -90.5q-294 0 -444 213z" />
<glyph unicode="t" horiz-adv-x="774" d="M43 934v121h186v309h131v-309h357v-121h-357v-627q0 -209 181 -209q84 0 139 43l61 -102q-84 -63 -206 -64q-190 0 -267 136q-39 70 -39 196v627h-186z" />
<glyph unicode="u" horiz-adv-x="1208" d="M156 381v674h131v-643q0 -309 260 -310q156 0 258 104.5t102 268.5v580h131v-1055h-131v193q-141 -217 -377 -218q-172 0 -273 105.5t-101 300.5z" />
<glyph unicode="v" horiz-adv-x="1064" d="M37 1055h147l351 -895l350 895h143l-428 -1055h-137z" />
<glyph unicode="w" horiz-adv-x="1574" d="M61 1055h136l239 -908l289 908h133l287 -908l239 908h129l-290 -1055h-154l-281 889l-282 -889h-154z" />
<glyph unicode="x" horiz-adv-x="1060" d="M37 0l418 551l-381 504h162l301 -410l297 410h155l-379 -504l414 -551h-162l-332 451l-333 -451h-160z" />
<glyph unicode="y" horiz-adv-x="1210" d="M141 -246l80 111q137 -115 328 -115q156 0 258 82t102 256v176q-141 -217 -377 -217q-172 0 -273 105.5t-101 300.5v602h131v-572q0 -309 260 -309q156 0 258 104.5t102 268.5v508h131v-946q0 -213 -98 -328q-135 -158 -401 -158q-226 0 -400 131z" />
<glyph unicode="z" horiz-adv-x="1017" d="M86 0v117l659 817h-632v121h794v-119l-659 -817h680v-119h-842z" />
<glyph unicode="{" horiz-adv-x="710" d="M51 561v119h45q201 0 201 221v223q0 166 95 259.5t251 93.5h53v-121h-69q-201 0 -201 -219v-232q0 -219 -166 -284q166 -66 166 -285v-232q0 -219 201 -219h69v-121h-53q-156 0 -251 93.5t-95 259.5v223q0 221 -201 221h-45z" />
<glyph unicode="|" horiz-adv-x="448" d="M174 -221v1683h100v-1683h-100z" />
<glyph unicode="}" horiz-adv-x="710" d="M14 -115h70q203 0 203 219v232q0 219 164 285q-164 66 -164 284v232q0 219 -203 219h-70v121h54q158 0 252 -92.5t94 -260.5v-223q0 -221 200 -221h45v-119h-45q-201 0 -200 -221v-223q0 -168 -94.5 -260.5t-251.5 -92.5h-54v121z" />
<glyph unicode="~" horiz-adv-x="1245" d="M123 578q119 111 185.5 152.5t156.5 41.5q70 0 151 -53l80 -51q63 -41 111 -41q55 0 107.5 33.5t136.5 115.5l79 -80q-119 -111 -185 -152.5t-157 -41.5q-70 0 -151 53l-80 51q-63 41 -111 41q-55 0 -107 -33.5t-136 -115.5z" />
<glyph unicode="&#xa1;" horiz-adv-x="514" d="M178 -16l43 669h72l43 -669v-295h-158v295zM178 856v199h158v-199h-158z" />
<glyph unicode="&#xa2;" d="M129 528.5q0 223.5 121 375t323 171.5v170h107v-168q223 -20 356 -203l-104 -79q-94 137 -252 155v-848q160 23 254 162l104 -80q-135 -184 -358 -207v-170h-107v173q-201 18 -322.5 171.5t-121.5 377zM268 528q0 -170 83 -286.5t222 -137.5v846q-141 -20 -223 -137 t-82 -285z" />
<glyph unicode="&#xa3;" d="M66 584v110h167l-49 124q-14 38 -24 84t-10 89q0 182 128 291t324 109q285 0 451 -236l-121 -80q-117 176 -334 176q-131 0 -217 -67.5t-86 -192.5q0 -31 5 -61.5t16.5 -64.5t20.5 -56l25 -61l23 -54h430v-110h-395q29 -74 29 -156q0 -152 -130 -293q109 45 181 45 q76 0 189.5 -34.5t164.5 -34.5q61 0 97 29.5t65 101.5l110 -62q-84 -205 -258 -205q-63 0 -199.5 42t-209.5 42q-152 0 -305 -84l-54 99q217 139 217 321q0 92 -41 189h-210z" />
<glyph unicode="&#xa4;" d="M139 262l142 139q-70 100 -70 222q0 119 70 219l-142 143l86 86l142 -143q98 72 221 71q121 0 219 -71l141 143l86 -86l-141 -141q72 -100 72 -221q0 -123 -72 -222l141 -139l-86 -88l-141 141q-100 -70 -219 -69q-121 0 -221 69l-142 -141zM324 622.5 q0 -110.5 76.5 -187.5t187 -77t187.5 77t77 187.5t-77 187.5t-187.5 77t-187 -77t-76.5 -187.5z" />
<glyph unicode="&#xa5;" d="M66 1366h170l356 -680l350 680h166l-367 -657h287v-99h-340l-31 -51v-135h371v-98h-371v-326h-143v326h-373v98h373v135l-33 51h-340v99h289z" />
<glyph unicode="&#xa6;" horiz-adv-x="452" d="M176 -221v639h100v-639h-100zM176 823v639h100v-639h-100z" />
<glyph unicode="&#xa7;" horiz-adv-x="1067" d="M76 848q0 233 147.5 388t388.5 155q193 0 324 -97l-82 -106q-92 80 -246 80q-240 0 -346 -195l205 -131l151 -97q43 -28 114 -84t114 -108q135 -158 135 -370q0 -238 -145.5 -392.5t-386.5 -154.5q-197 0 -324 96l78 107q98 -80 250 -80q238 0 346 196l-205 129 q-2 2 -50 32t-59.5 38t-54.5 35.5t-62 43.5l-52 41q-32 26 -56 49t-45 48q-139 162 -139 377zM213 848q0 -168 104 -295q84 -100 318 -258l201 -135q12 74 12 119q0 164 -109 294q-74 90 -315 258l-197 138q-14 -74 -14 -121z" />
<glyph unicode="&#xa8;" horiz-adv-x="653" d="M53 1229v135h129v-135h-129zM471 1229v135h129v-135h-129z" />
<glyph unicode="&#xa9;" horiz-adv-x="1607" d="M84 682q0 297 211 508t510 211q297 0 508 -211t211 -508t-211 -508t-508 -211t-509 211t-212 508zM180 682q0 -258 182.5 -440.5t442.5 -182.5q258 0 439 182.5t181 440.5q0 260 -182 442.5t-438 182.5q-258 0 -441.5 -182.5t-183.5 -442.5zM401 682q0 168 118 285.5 t286 117.5q106 0 196.5 -51t143.5 -137l-82 -55q-41 68 -109.5 106.5t-148.5 38.5q-125 0 -215 -90t-90 -215t90 -214t215 -89q166 0 260 145l82 -53q-53 -88 -144.5 -139t-197.5 -51q-168 0 -286 117.5t-118 283.5z" />
<glyph unicode="&#xaa;" horiz-adv-x="888" d="M104 881q0 57 23 98t62.5 62.5t73.5 30.5t79 15q4 0 12 1.5t13 1.5q51 6 79.5 10t62.5 14t48 27.5t14 44.5q0 96 -165 96q-119 0 -209 -70l-62 72q127 94 268 94q125 0 197 -54t72 -161v-319q0 -72 55 -72q20 0 45 10l16 -86q-27 -12 -73 -12q-119 0 -135 102 q-86 -109 -244 -108q-102 0 -167 55.5t-65 147.5zM205 887q0 -57 43 -86t108 -29q90 0 154.5 47t64.5 139v107q-20 -20 -53 -33.5t-51 -16.5t-88 -14l-25 -4q-153 -20 -153 -110z" />
<glyph unicode="&#xab;" horiz-adv-x="915" d="M72 508v41l280 385l90 -70l-256 -336l256 -335l-90 -70zM434 508v41l281 385l90 -70l-256 -336l256 -335l-90 -70z" />
<glyph unicode="&#xac;" horiz-adv-x="1196" d="M123 563v119h944v-530h-119v411h-825z" />
<glyph unicode="&#xad;" horiz-adv-x="792" d="M135 516v119h522v-119h-522z" />
<glyph unicode="&#xae;" horiz-adv-x="933" d="M88 1009.5q0 157.5 111.5 268.5t267.5 111t267.5 -111t111.5 -268.5t-111.5 -268t-267.5 -110.5t-267.5 110.5t-111.5 268zM137 1009.5q0 -137.5 96.5 -233.5t233.5 -96t233.5 96t96.5 233.5t-96.5 233.5t-233.5 96t-233.5 -96t-96.5 -233.5zM322 815v393h174 q53 0 90 -33.5t37 -87.5q0 -86 -82 -112l96 -160h-68l-88 152h-102v-152h-57zM379 1020h121q25 0 44 19.5t19 48t-19.5 48t-43.5 19.5h-121v-135z" />
<glyph unicode="&#xaf;" horiz-adv-x="653" d="M33 1262v102h592v-102h-592z" />
<glyph unicode="&#xb0;" horiz-adv-x="784" d="M92 1087q0 125 88 213.5t213 88.5q123 0 211 -88.5t88 -213.5q0 -123 -88 -211t-211 -88q-125 0 -213 88t-88 211zM188 1087q0 -82 61.5 -142t143.5 -60t142.5 60.5t60.5 141.5q0 84 -60.5 144.5t-142.5 60.5t-143.5 -60.5t-61.5 -144.5z" />
<glyph unicode="&#xb1;" d="M113 686v119h411v414h121v-414h412v-119h-412v-412h-121v412h-411zM115 0v119h944v-119h-944z" />
<glyph unicode="&#xb2;" horiz-adv-x="761" d="M57 1411q119 160 303 160q131 0 215 -70.5t84 -191.5q0 -117 -75.5 -207t-333.5 -305h444v-103h-612v88q270 221 367.5 328t97.5 193q0 76 -56.5 118.5t-136.5 42.5q-133 0 -211 -110z" />
<glyph unicode="&#xb3;" horiz-adv-x="776" d="M59 850l107 47q63 -113 221 -113q88 0 140.5 44t52.5 114q0 66 -43 101.5t-123 35.5h-113v105h107q55 0 102 34.5t47 104.5t-54 105.5t-136 35.5q-135 0 -209 -98l-84 64q111 141 301 141q127 0 209 -62.5t82 -169.5q0 -133 -109 -192q135 -47 135 -211 q0 -115 -86 -186.5t-219 -71.5q-234 0 -328 172z" />
<glyph unicode="&#xb4;" horiz-adv-x="653" d="M213 1247q113 113 184 238l142 -23q-29 -66 -107 -143.5t-164 -130.5z" />
<glyph unicode="&#xb5;" d="M143 -356v1411h131v-629q0 -324 263 -324q145 0 241 99.5t96 273.5v580h132v-830q0 -66 18 -97.5t63 -31.5q43 0 58 13l18 -109q-35 -16 -94 -16q-84 0 -137 49t-55 139q-127 -197 -340 -197q-90 0 -160 37t-103 97v-465h-131z" />
<glyph unicode="&#x3bc;" d="M143 -356v1411h131v-629q0 -324 263 -324q145 0 241 99.5t96 273.5v580h132v-830q0 -66 18 -97.5t63 -31.5q43 0 58 13l18 -109q-35 -16 -94 -16q-84 0 -137 49t-55 139q-127 -197 -340 -197q-90 0 -160 37t-103 97v-465h-131z" />
<glyph unicode="&#xb6;" horiz-adv-x="1124" d="M74 956.5q0 182.5 117.5 295t289.5 112.5h475v-1550h-100v1464h-137v-1464h-103v735h-135q-176 0 -291.5 112.5t-115.5 295z" />
<glyph unicode="&#xb7;" horiz-adv-x="518" d="M154 623q0 43 31.5 75.5t74.5 32.5t74 -32.5t31 -75.5t-31 -74t-74 -31t-74.5 31t-31.5 74z" />
<glyph unicode="&#xb8;" horiz-adv-x="653" d="M123 -188q53 -53 121 -54q41 0 68.5 24.5t27.5 65.5q0 88 -115 154l43 29q84 -31 135.5 -84t51.5 -123q0 -74 -54.5 -117t-134.5 -43q-92 0 -143 47v101z" />
<glyph unicode="&#xb9;" horiz-adv-x="524" d="M23 1444q193 41 268 110h82v-860h-109v723q-80 -41 -225 -59z" />
<glyph unicode="&#xba;" horiz-adv-x="856" d="M94 1030q0 154 91 252t243 98t243 -98t91 -252q0 -152 -91 -251t-243 -99t-243 99t-91 251zM197 1030.5q0 -108.5 62.5 -180.5t169 -72t167.5 72t61 180.5t-61 180t-167.5 71.5t-169 -71.5t-62.5 -180z" />
<glyph unicode="&#xbb;" horiz-adv-x="915" d="M111 193l256 335l-256 336l90 70l280 -385v-41l-280 -385zM473 193l256 335l-256 336l90 70l281 -385v-41l-281 -385z" />
<glyph unicode="&#xbc;" horiz-adv-x="1888" d="M106 1253q193 41 269 111h82v-860h-109v723q-80 -41 -225 -60zM342 0l1008 1364h102l-1008 -1364h-102zM1087 207v98q172 295 181 555h106q-10 -266 -170 -551h320v361h106v-361h135v-102h-135v-207h-106v207h-437z" />
<glyph unicode="&#xbd;" horiz-adv-x="1888" d="M106 1253q193 41 269 111h82v-860h-109v723q-80 -41 -225 -60zM342 0l1008 1364h102l-1008 -1364h-102zM1108 717q121 160 303 160q131 0 215 -71t84 -192q0 -117 -75.5 -207t-334.5 -305h445v-102h-612v88q270 221 367 327.5t97 192.5q0 76 -56 119t-136 43 q-133 0 -211 -111z" />
<glyph unicode="&#xbe;" horiz-adv-x="1888" d="M86 659l107 48q63 -113 221 -113q88 0 140 44t52 114q0 66 -43 101.5t-123 35.5h-112v104h106q55 0 102.5 35t47.5 104.5t-54.5 105.5t-136.5 36q-135 0 -209 -98l-84 63q111 141 301 141q127 0 209 -62.5t82 -168.5q0 -133 -108 -193q135 -47 135 -211 q0 -115 -86 -186.5t-219 -71.5q-234 0 -328 172zM395 0l1008 1364h102l-1007 -1364h-103zM1141 207v98q172 295 180 555h106q-10 -266 -170 -551h320v361h106v-361h136v-102h-136v-207h-106v207h-436z" />
<glyph unicode="&#xbf;" horiz-adv-x="1007" d="M117 63q0 176 119.5 287t316.5 127v178h121v-295q-23 4 -58 5q-156 0 -254 -80t-98 -215q0 -119 78 -195t221 -76q170 0 322 131l82 -102q-190 -164 -410 -164q-188 0 -314 108.5t-126 290.5zM537 856v199h157v-199h-157z" />
<glyph unicode="&#xc0;" horiz-adv-x="1351" d="M29 0l565 1364h164l565 -1364h-162l-166 410h-649l-166 -410h-151zM401 545h541l-266 674zM432 1720l141 23q72 -125 185 -238l-56 -59q-86 53 -163.5 130.5t-106.5 143.5z" />
<glyph unicode="&#xc1;" horiz-adv-x="1351" d="M29 0l565 1364h164l565 -1364h-162l-166 410h-649l-166 -410h-151zM401 545h541l-266 674zM594 1505q113 113 184 238l142 -23q-29 -66 -107 -143.5t-164 -130.5z" />
<glyph unicode="&#xc2;" horiz-adv-x="1351" d="M29 0l565 1364h164l565 -1364h-162l-166 410h-649l-166 -410h-151zM360 1534q127 88 258 209h111q131 -121 258 -209l-43 -76q-160 61 -270 168q-111 -106 -271 -168zM401 545h541l-266 674z" />
<glyph unicode="&#xc3;" horiz-adv-x="1351" d="M29 0l565 1364h164l565 -1364h-162l-166 410h-649l-166 -410h-151zM373 1530q27 74 75 116t101 42q45 0 135 -39t127 -39q68 0 127 73l59 -38q-27 -74 -75 -116t-101 -42q-43 0 -133 39t-129 39q-68 0 -127 -74zM401 545h541l-266 674z" />
<glyph unicode="&#xc4;" horiz-adv-x="1351" d="M29 0l565 1364h164l565 -1364h-162l-166 410h-649l-166 -410h-151zM401 545h541l-266 674zM401 1487v135h129v-135h-129zM819 1487v135h129v-135h-129z" />
<glyph unicode="&#xc5;" horiz-adv-x="1343" d="M25 0l542 1311q-98 57 -98 174q0 84 59.5 144.5t143.5 60.5t144.5 -60.5t60.5 -144.5q0 -115 -101 -174l543 -1311h-162l-166 410h-649l-166 -410h-151zM397 545h541l-266 674zM553 1483q0 -51 35 -85t86 -34t85 34t34 85t-34 87t-85 36t-86 -36t-35 -87z" />
<glyph unicode="&#xc6;" horiz-adv-x="1816" d="M0 0l705 1364h989v-135h-664v-438h563v-134h-563v-522h684v-135h-831v647q-424 -55 -629 -457l-98 -190h-156zM477 625q176 127 406 157v447h-95z" />
<glyph unicode="&#xc7;" horiz-adv-x="1363" d="M109 682q0 307 180 507t473 200q326 0 514 -252l-113 -88q-139 203 -399 202q-227 0 -364.5 -154.5t-137.5 -412.5q0 -260 137.5 -415.5t360.5 -155.5q264 0 403 204l119 -88q-176 -244 -491 -252q84 -63 83 -153q0 -74 -54 -117t-134 -43q-92 0 -143 47v101 q53 -53 121 -54q41 0 68.5 24.5t27.5 65.5q0 72 -82 134q-258 29 -413.5 222t-155.5 478z" />
<glyph unicode="&#xc8;" horiz-adv-x="1261" d="M195 0v1364h940v-135h-795v-438h692v-134h-692v-522h815v-135h-960zM446 1720l142 23q72 -125 184 -238l-55 -59q-86 53 -164 130.5t-107 143.5z" />
<glyph unicode="&#xc9;" horiz-adv-x="1261" d="M195 0v1364h940v-135h-795v-438h692v-134h-692v-522h815v-135h-960zM584 1505q113 113 184 238l141 -23q-29 -66 -106.5 -143.5t-163.5 -130.5z" />
<glyph unicode="&#xca;" horiz-adv-x="1261" d="M195 0v1364h940v-135h-795v-438h692v-134h-692v-522h815v-135h-960zM375 1534q127 88 258 209h110q131 -121 258 -209l-43 -76q-160 61 -270 168q-111 -106 -270 -168z" />
<glyph unicode="&#xcb;" horiz-adv-x="1261" d="M195 0v1364h940v-135h-795v-438h692v-134h-692v-522h815v-135h-960zM397 1487v135h129v-135h-129zM815 1487v135h129v-135h-129z" />
<glyph unicode="&#xcc;" horiz-adv-x="532" d="M33 1720l141 23q72 -125 184 -238l-55 -59q-86 53 -163.5 130.5t-106.5 143.5zM195 0v1364h143v-1364h-143z" />
<glyph unicode="&#xcd;" horiz-adv-x="532" d="M176 1505q113 113 184 238l142 -23q-29 -66 -107 -143.5t-164 -130.5zM195 0v1364h143v-1364h-143z" />
<glyph unicode="&#xce;" horiz-adv-x="532" d="M-47 1534q127 88 258 209h111q131 -121 258 -209l-43 -76q-160 61 -271 168q-111 -106 -270 -168zM195 0v1364h143v-1364h-143z" />
<glyph unicode="&#xcf;" horiz-adv-x="532" d="M-6 1487v135h129v-135h-129zM195 0v1364h143v-1364h-143zM412 1487v135h129v-135h-129z" />
<glyph unicode="&#xd0;" horiz-adv-x="1470" d="M-37 641v121h232v602h528q301 0 468 -186.5t167 -495.5q0 -307 -167 -494.5t-468 -187.5h-528v641h-232zM340 135h381q227 0 355 144.5t128 402.5q0 260 -128 403.5t-355 143.5h-381v-467h399v-121h-399v-506z" />
<glyph unicode="&#xd1;" horiz-adv-x="1480" d="M195 0v1364h184l768 -1163v1163h139v-1364h-168l-786 1192v-1192h-137zM453 1530q27 74 74.5 116t101.5 42q43 0 133 -39t129 -39q68 0 127 73l59 -38q-27 -74 -75 -116t-101 -42q-45 0 -135 39t-127 39q-68 0 -127 -74z" />
<glyph unicode="&#xd2;" horiz-adv-x="1523" d="M106 682q0 309 180.5 508t475.5 199t475 -199t180 -508q0 -307 -180 -507t-475 -200t-475.5 200t-180.5 507zM260 682q0 -256 135 -412.5t367 -156.5q229 0 365.5 156.5t136.5 412.5t-136.5 412.5t-365.5 156.5q-231 0 -366.5 -155.5t-135.5 -413.5zM561 1720l141 23 q72 -125 185 -238l-56 -59q-86 53 -163.5 130.5t-106.5 143.5z" />
<glyph unicode="&#xd3;" horiz-adv-x="1523" d="M106 682q0 309 180.5 508t475.5 199t475 -199t180 -508q0 -307 -180 -507t-475 -200t-475.5 200t-180.5 507zM260 682q0 -256 135 -412.5t367 -156.5q229 0 365.5 156.5t136.5 412.5t-136.5 412.5t-365.5 156.5q-231 0 -366.5 -155.5t-135.5 -413.5zM649 1505 q113 113 185 238l141 -23q-29 -66 -106.5 -143.5t-163.5 -130.5z" />
<glyph unicode="&#xd4;" horiz-adv-x="1523" d="M106 682q0 309 180.5 508t475.5 199t475 -199t180 -508q0 -307 -180 -507t-475 -200t-475.5 200t-180.5 507zM260 682q0 -256 135 -412.5t367 -156.5q229 0 365.5 156.5t136.5 412.5t-136.5 412.5t-365.5 156.5q-231 0 -366.5 -155.5t-135.5 -413.5zM449 1534 q127 88 258 209h110q131 -121 258 -209l-43 -76q-160 61 -270 168q-111 -106 -270 -168z" />
<glyph unicode="&#xd5;" horiz-adv-x="1523" d="M106 682q0 309 180.5 508t475.5 199t475 -199t180 -508q0 -307 -180 -507t-475 -200t-475.5 200t-180.5 507zM260 682q0 -256 135 -412.5t367 -156.5q229 0 365.5 156.5t136.5 412.5t-136.5 412.5t-365.5 156.5q-231 0 -366.5 -155.5t-135.5 -413.5zM449 1530 q27 74 74.5 116t101.5 42q43 0 133 -39t129 -39q68 0 127 73l59 -38q-27 -74 -75 -116t-101 -42q-45 0 -135 39t-127 39q-68 0 -127 -74z" />
<glyph unicode="&#xd6;" horiz-adv-x="1523" d="M106 682q0 309 180.5 508t475.5 199t475 -199t180 -508q0 -307 -180 -507t-475 -200t-475.5 200t-180.5 507zM260 682q0 -256 135 -412.5t367 -156.5q229 0 365.5 156.5t136.5 412.5t-136.5 412.5t-365.5 156.5q-231 0 -366.5 -155.5t-135.5 -413.5zM487 1487v135h129 v-135h-129zM905 1487v135h129v-135h-129z" />
<glyph unicode="&#xd7;" d="M139 262l365 361l-365 362l86 86l363 -364l360 364l86 -86l-362 -362l362 -361l-86 -88l-360 365l-363 -365z" />
<glyph unicode="&#xd8;" horiz-adv-x="1523" d="M106 682q0 309 180.5 508t475.5 199q203 0 360 -103l68 96l82 -57l-72 -100q217 -201 217 -543q0 -307 -180 -507t-475 -200q-205 0 -363 103l-67 -96l-82 57l72 100q-216 199 -216 543zM260 682q0 -268 143 -424l639 913q-121 80 -280 80q-231 0 -366.5 -155.5 t-135.5 -413.5zM479 195q119 -82 283 -82q229 0 365.5 156.5t136.5 412.5q0 266 -146 424z" />
<glyph unicode="&#xd9;" horiz-adv-x="1449" d="M178 508v856h144v-856q0 -178 108.5 -286.5t292.5 -108.5t294.5 108.5t110.5 286.5v856h144v-856q0 -238 -155.5 -385.5t-393.5 -147.5q-240 0 -392.5 146.5t-152.5 386.5zM506 1720l141 23q72 -125 184 -238l-55 -59q-86 53 -163.5 130.5t-106.5 143.5z" />
<glyph unicode="&#xda;" horiz-adv-x="1449" d="M178 508v856h144v-856q0 -178 108.5 -286.5t292.5 -108.5t294.5 108.5t110.5 286.5v856h144v-856q0 -238 -155.5 -385.5t-393.5 -147.5q-240 0 -392.5 146.5t-152.5 386.5zM637 1505q113 113 184 238l142 -23q-29 -66 -107 -143.5t-164 -130.5z" />
<glyph unicode="&#xdb;" horiz-adv-x="1449" d="M178 508v856h144v-856q0 -178 108.5 -286.5t292.5 -108.5t294.5 108.5t110.5 286.5v856h144v-856q0 -238 -155.5 -385.5t-393.5 -147.5q-240 0 -392.5 146.5t-152.5 386.5zM412 1534q127 88 258 209h110q131 -121 258 -209l-43 -76q-160 61 -270 168q-111 -106 -270 -168 z" />
<glyph unicode="&#xdc;" horiz-adv-x="1449" d="M178 508v856h144v-856q0 -178 108.5 -286.5t292.5 -108.5t294.5 108.5t110.5 286.5v856h144v-856q0 -238 -155.5 -385.5t-393.5 -147.5q-240 0 -392.5 146.5t-152.5 386.5zM451 1487v135h129v-135h-129zM868 1487v135h129v-135h-129z" />
<glyph unicode="&#xdd;" horiz-adv-x="1218" d="M16 1364h170l426 -666l428 666h164l-522 -797v-567h-147v567zM520 1505q113 113 185 238l141 -23q-29 -66 -106.5 -143.5t-164.5 -130.5z" />
<glyph unicode="&#xde;" horiz-adv-x="1282" d="M195 0v1364h143v-219h407q225 0 347 -110.5t122 -297t-121.5 -297t-347.5 -110.5h-407v-330h-143zM338 465h410q158 0 236.5 72.5t78.5 199.5t-79 200t-236 73h-410v-545z" />
<glyph unicode="&#xdf;" horiz-adv-x="1234" d="M170 0v1110q0 170 125 272.5t309 102.5t308 -96.5t124 -258.5q0 -104 -46 -178.5t-163 -138.5q156 -51 233 -155.5t77 -245.5q0 -205 -126 -321t-347 -116q-125 0 -213 41l36 121q72 -43 181 -43q160 0 246.5 89t86.5 237q0 154 -96 231.5t-262 77.5h-119v119h80 q127 0 211 67.5t84 194.5q0 129 -86 192.5t-215 63.5q-125 0 -213 -67.5t-88 -188.5v-1110h-127z" />
<glyph unicode="&#xe0;" horiz-adv-x="1318" d="M100 526.5q0 239.5 133.5 396t354.5 156.5q250 0 393 -217v193h131v-830q0 -68 21.5 -98.5t72.5 -30.5q41 0 66 13l18 -109q-43 -16 -104 -16q-82 0 -137.5 47t-63.5 143q-135 -199 -393 -199q-225 0 -358.5 156t-133.5 395.5zM240 528.5q0 -186.5 94 -306.5t270 -120 q178 0 277.5 121t99.5 305.5t-100.5 304t-276.5 119.5t-270 -118.5t-94 -305zM406 1462l141 23q72 -125 184 -238l-55 -59q-86 53 -163.5 130.5t-106.5 143.5z" />
<glyph unicode="&#xe1;" horiz-adv-x="1318" d="M100 526.5q0 239.5 133.5 396t354.5 156.5q250 0 393 -217v193h131v-830q0 -68 21.5 -98.5t72.5 -30.5q41 0 66 13l18 -109q-43 -16 -104 -16q-82 0 -137.5 47t-63.5 143q-135 -199 -393 -199q-225 0 -358.5 156t-133.5 395.5zM240 528.5q0 -186.5 94 -306.5t270 -120 q178 0 277.5 121t99.5 305.5t-100.5 304t-276.5 119.5t-270 -118.5t-94 -305zM510 1247q113 113 184 238l142 -23q-29 -66 -107 -143.5t-164 -130.5z" />
<glyph unicode="&#xe2;" horiz-adv-x="1318" d="M100 526.5q0 239.5 133.5 396t354.5 156.5q250 0 393 -217v193h131v-830q0 -68 21.5 -98.5t72.5 -30.5q41 0 66 13l18 -109q-43 -16 -104 -16q-82 0 -137.5 47t-63.5 143q-135 -199 -393 -199q-225 0 -358.5 156t-133.5 395.5zM240 528.5q0 -186.5 94 -306.5t270 -120 q178 0 277.5 121t99.5 305.5t-100.5 304t-276.5 119.5t-270 -118.5t-94 -305zM293 1276q127 88 258 209h111q131 -121 258 -209l-43 -76q-160 61 -271 168q-111 -106 -270 -168z" />
<glyph unicode="&#xe3;" horiz-adv-x="1318" d="M100 526.5q0 239.5 133.5 396t354.5 156.5q250 0 393 -217v193h131v-830q0 -68 21.5 -98.5t72.5 -30.5q41 0 66 13l18 -109q-43 -16 -104 -16q-82 0 -137.5 47t-63.5 143q-135 -199 -393 -199q-225 0 -358.5 156t-133.5 395.5zM240 528.5q0 -186.5 94 -306.5t270 -120 q178 0 277.5 121t99.5 305.5t-100.5 304t-276.5 119.5t-270 -118.5t-94 -305zM293 1272q27 74 75 116t101 42q43 0 133 -39t129 -39q68 0 127 73l60 -39q-27 -74 -75 -115.5t-102 -41.5q-45 0 -135 39t-127 39q-68 0 -127 -74z" />
<glyph unicode="&#xe4;" horiz-adv-x="1318" d="M100 526.5q0 239.5 133.5 396t354.5 156.5q250 0 393 -217v193h131v-830q0 -68 21.5 -98.5t72.5 -30.5q41 0 66 13l18 -109q-43 -16 -104 -16q-82 0 -137.5 47t-63.5 143q-135 -199 -393 -199q-225 0 -358.5 156t-133.5 395.5zM240 528.5q0 -186.5 94 -306.5t270 -120 q178 0 277.5 121t99.5 305.5t-100.5 304t-276.5 119.5t-270 -118.5t-94 -305zM330 1229v135h129v-135h-129zM748 1229v135h129v-135h-129z" />
<glyph unicode="&#xe5;" horiz-adv-x="1318" d="M100 526.5q0 239.5 133.5 396t354.5 156.5q250 0 393 -217v193h131v-830q0 -68 21.5 -98.5t72.5 -30.5q41 0 66 13l18 -109q-43 -16 -104 -16q-82 0 -137.5 47t-63.5 143q-135 -199 -393 -199q-225 0 -358.5 156t-133.5 395.5zM240 528.5q0 -186.5 94 -306.5t270 -120 q178 0 277.5 121t99.5 305.5t-100.5 304t-276.5 119.5t-270 -118.5t-94 -305zM406 1395q0 84 60 145.5t144 61.5t143.5 -61.5t59.5 -145.5t-59.5 -144.5t-143.5 -60.5t-144 60.5t-60 144.5zM489 1394.5q0 -51.5 35 -86t86 -34.5q49 0 84 34.5t35 86t-35 87.5t-84 36 q-51 0 -86 -36t-35 -87.5z" />
<glyph unicode="&#xe6;" horiz-adv-x="2058" d="M100 530q0 236 133.5 392.5t354.5 156.5q250 0 393 -217v193h131v-176q137 201 367 200q221 0 356 -149.5t135 -370.5q0 -37 -4 -61h-852q8 -182 112.5 -288t274.5 -106q190 0 320 144l92 -92q-164 -180 -414 -181q-164 0 -282.5 74t-180.5 209q-55 -129 -173 -206 t-267 -77q-221 0 -358.5 156.5t-137.5 398.5zM240 528.5q0 -186.5 94 -306.5t270 -120q178 0 277.5 121t99.5 305.5t-100.5 304t-276.5 119.5t-270 -118.5t-94 -305zM1118 610h713q-14 164 -113.5 254t-242.5 90q-152 0 -248.5 -96t-108.5 -248z" />
<glyph unicode="&#xe7;" horiz-adv-x="1091" d="M102 528q0 240 137.5 395.5t362.5 155.5q258 0 408 -205l-105 -79q-109 160 -301 159q-164 0 -263 -120.5t-99 -305.5q0 -186 98 -307t260 -121q195 0 307 164l105 -80q-139 -193 -375 -207q84 -63 84 -153q0 -74 -54.5 -117t-134.5 -43q-92 0 -143 47v101 q53 -53 121 -54q41 0 68.5 24.5t27.5 65.5q0 72 -82 134q-193 27 -307.5 178t-114.5 368z" />
<glyph unicode="&#xe8;" horiz-adv-x="1181" d="M100 524q0 238 138.5 396.5t365.5 158.5q221 0 356.5 -149.5t135.5 -370.5q0 -37 -4 -61h-852q8 -182 112.5 -288t274.5 -106q190 0 319 144l92 -92q-164 -180 -411 -181q-242 0 -384.5 154.5t-142.5 394.5zM244 610h712q-14 164 -113.5 254t-242.5 90q-152 0 -248 -96 t-108 -248zM379 1462l141 23q72 -125 185 -238l-56 -59q-86 53 -163.5 130.5t-106.5 143.5z" />
<glyph unicode="&#xe9;" horiz-adv-x="1181" d="M100 524q0 238 138.5 396.5t365.5 158.5q221 0 356.5 -149.5t135.5 -370.5q0 -37 -4 -61h-852q8 -182 112.5 -288t274.5 -106q190 0 319 144l92 -92q-164 -180 -411 -181q-242 0 -384.5 154.5t-142.5 394.5zM244 610h712q-14 164 -113.5 254t-242.5 90q-152 0 -248 -96 t-108 -248zM492 1247q113 113 184 238l141 -23q-29 -66 -106.5 -143.5t-163.5 -130.5z" />
<glyph unicode="&#xea;" horiz-adv-x="1181" d="M100 524q0 238 138.5 396.5t365.5 158.5q221 0 356.5 -149.5t135.5 -370.5q0 -37 -4 -61h-852q8 -182 112.5 -288t274.5 -106q190 0 319 144l92 -92q-164 -180 -411 -181q-242 0 -384.5 154.5t-142.5 394.5zM244 610h712q-14 164 -113.5 254t-242.5 90q-152 0 -248 -96 t-108 -248zM283 1276q127 88 258 209h110q131 -121 258 -209l-43 -76q-160 61 -270 168q-111 -106 -270 -168z" />
<glyph unicode="&#xeb;" horiz-adv-x="1181" d="M100 524q0 238 138.5 396.5t365.5 158.5q221 0 356.5 -149.5t135.5 -370.5q0 -37 -4 -61h-852q8 -182 112.5 -288t274.5 -106q190 0 319 144l92 -92q-164 -180 -411 -181q-242 0 -384.5 154.5t-142.5 394.5zM244 610h712q-14 164 -113.5 254t-242.5 90q-152 0 -248 -96 t-108 -248zM326 1229v135h129v-135h-129zM743 1229v135h129v-135h-129z" />
<glyph unicode="&#xec;" horiz-adv-x="471" d="M8 1462l142 23q72 -125 184 -238l-55 -59q-86 53 -164 130.5t-107 143.5zM170 0v1055h131v-1055h-131z" />
<glyph unicode="&#xed;" horiz-adv-x="471" d="M139 1247q113 113 185 238l141 -23q-29 -66 -106.5 -143.5t-163.5 -130.5zM170 0v1055h131v-1055h-131z" />
<glyph unicode="&#xee;" horiz-adv-x="471" d="M-78 1276q127 88 258 209h111q131 -121 258 -209l-43 -76q-160 61 -270 168q-111 -106 -271 -168zM170 0v1055h131v-1055h-131z" />
<glyph unicode="&#xef;" horiz-adv-x="471" d="M4 1229v135h129v-135h-129zM170 0v1055h131v-1055h-131zM338 1229v135h129v-135h-129z" />
<glyph unicode="&#xf0;" horiz-adv-x="1241" d="M102 492q0 227 134.5 371.5t345.5 144.5q217 0 348 -144q-78 176 -252 336l-260 -129l-35 74l225 112q-92 72 -182 119l72 109q145 -86 235 -166l244 121l35 -74l-213 -106q324 -315 323 -717q0 -266 -135 -410q-147 -158 -376.5 -158t-369 149t-139.5 368zM242 492 q0 -166 94 -277t270 -111q182 0 281.5 110t99.5 277.5t-101.5 279.5t-279.5 112q-176 0 -270 -111.5t-94 -279.5z" />
<glyph unicode="&#xf1;" horiz-adv-x="1210" d="M170 0v1055h131v-193q141 217 377 217q172 0 273.5 -105.5t101.5 -299.5v-674h-131v643q0 309 -260 309q-156 0 -258.5 -104.5t-102.5 -267.5v-580h-131zM332 1272q27 74 75 116t101 42q45 0 135 -39t127 -39q68 0 127 73l59 -39q-27 -74 -74.5 -115.5t-101.5 -41.5 q-43 0 -133 39t-129 39q-68 0 -127 -74z" />
<glyph unicode="&#xf2;" horiz-adv-x="1210" d="M100 526q0 242 137.5 397.5t367 155.5t367.5 -155.5t138 -397.5q0 -238 -138 -394.5t-367.5 -156.5t-367 155.5t-137.5 395.5zM240 526q0 -182 98 -304t266 -122t266.5 122t98.5 304q0 186 -98.5 307t-266.5 121t-266 -121t-98 -307zM385 1462l141 23q72 -125 185 -238 l-56 -59q-86 53 -163.5 130.5t-106.5 143.5z" />
<glyph unicode="&#xf3;" horiz-adv-x="1210" d="M100 526q0 242 137.5 397.5t367 155.5t367.5 -155.5t138 -397.5q0 -238 -138 -394.5t-367.5 -156.5t-367 155.5t-137.5 395.5zM240 526q0 -182 98 -304t266 -122t266.5 122t98.5 304q0 186 -98.5 307t-266.5 121t-266 -121t-98 -307zM496 1247q113 113 184 238l141 -23 q-29 -66 -106.5 -143.5t-163.5 -130.5z" />
<glyph unicode="&#xf4;" horiz-adv-x="1210" d="M100 526q0 242 137.5 397.5t367 155.5t367.5 -155.5t138 -397.5q0 -238 -138 -394.5t-367.5 -156.5t-367 155.5t-137.5 395.5zM240 526q0 -182 98 -304t266 -122t266.5 122t98.5 304q0 186 -98.5 307t-266.5 121t-266 -121t-98 -307zM291 1276q127 88 258 209h110 q131 -121 259 -209l-44 -76q-160 61 -270 168q-111 -106 -270 -168z" />
<glyph unicode="&#xf5;" horiz-adv-x="1210" d="M100 526q0 242 137.5 397.5t367 155.5t367.5 -155.5t138 -397.5q0 -238 -138 -394.5t-367.5 -156.5t-367 155.5t-137.5 395.5zM240 526q0 -182 98 -304t266 -122t266.5 122t98.5 304q0 186 -98.5 307t-266.5 121t-266 -121t-98 -307zM295 1272q27 74 75 116t101 42 q45 0 135 -39t127 -39q68 0 127 73l60 -39q-27 -74 -75 -115.5t-102 -41.5q-43 0 -133 39t-129 39q-68 0 -127 -74z" />
<glyph unicode="&#xf6;" horiz-adv-x="1210" d="M100 526q0 242 137.5 397.5t367 155.5t367.5 -155.5t138 -397.5q0 -238 -138 -394.5t-367.5 -156.5t-367 155.5t-137.5 395.5zM240 526q0 -182 98 -304t266 -122t266.5 122t98.5 304q0 186 -98.5 307t-266.5 121t-266 -121t-98 -307zM334 1229v135h129v-135h-129z M752 1229v135h129v-135h-129z" />
<glyph unicode="&#xf7;" d="M115 563v119h944v-119h-944zM477 250q0 45 33 78.5t78 33.5t76.5 -33.5t31.5 -78.5q0 -43 -31.5 -76t-76.5 -33t-78 33t-33 76zM477 995q0 43 33 76t78 33t76.5 -33t31.5 -76q0 -45 -31.5 -77.5t-76.5 -32.5q-47 0 -79 32.5t-32 77.5z" />
<glyph unicode="&#xf8;" horiz-adv-x="1210" d="M100 526q0 242 137.5 397.5t366.5 155.5q150 0 273 -75l49 69l84 -57l-54 -76q154 -158 154 -414q0 -238 -138 -394.5t-368 -156.5q-156 0 -272 76l-47 -69l-84 57l53 76q-154 153 -154 411zM240 526.5q0 -186.5 92 -299.5l469 668q-86 59 -197 59q-168 0 -266 -120.5 t-98 -307zM408 158q82 -57 196 -58q168 0 266.5 122t98.5 304.5t-92 298.5z" />
<glyph unicode="&#xf9;" horiz-adv-x="1210" d="M158 381v674h131v-643q0 -309 260 -310q156 0 258 104.5t102 268.5v580h131v-1055h-131v193q-141 -217 -377 -218q-172 0 -273 105.5t-101 300.5zM356 1462l142 23q72 -125 184 -238l-55 -59q-86 53 -164 130.5t-107 143.5z" />
<glyph unicode="&#xfa;" horiz-adv-x="1210" d="M158 381v674h131v-643q0 -309 260 -310q156 0 258 104.5t102 268.5v580h131v-1055h-131v193q-141 -217 -377 -218q-172 0 -273 105.5t-101 300.5zM537 1247q113 113 184 238l141 -23q-29 -66 -106.5 -143.5t-163.5 -130.5z" />
<glyph unicode="&#xfb;" horiz-adv-x="1210" d="M158 381v674h131v-643q0 -309 260 -310q156 0 258 104.5t102 268.5v580h131v-1055h-131v193q-141 -217 -377 -218q-172 0 -273 105.5t-101 300.5zM283 1276q127 88 258 209h110q131 -121 258 -209l-43 -76q-160 61 -270 168q-111 -106 -270 -168z" />
<glyph unicode="&#xfc;" horiz-adv-x="1210" d="M158 381v674h131v-643q0 -309 260 -310q156 0 258 104.5t102 268.5v580h131v-1055h-131v193q-141 -217 -377 -218q-172 0 -273 105.5t-101 300.5zM326 1229v135h129v-135h-129zM743 1229v135h129v-135h-129z" />
<glyph unicode="&#xfd;" horiz-adv-x="1210" d="M141 -246l80 111q137 -115 328 -115q156 0 258 82t102 256v176q-141 -217 -377 -217q-172 0 -273 105.5t-101 300.5v602h131v-572q0 -309 260 -309q156 0 258 104.5t102 268.5v508h131v-946q0 -213 -98 -328q-135 -158 -401 -158q-226 0 -400 131zM518 1247 q113 113 184 238l142 -23q-29 -66 -107 -143.5t-164 -130.5z" />
<glyph unicode="&#xfe;" horiz-adv-x="1282" d="M170 -356v1818h131v-600q141 217 391 217q223 0 356.5 -155.5t133.5 -395.5q0 -242 -133.5 -397.5t-356.5 -155.5q-248 0 -391 218v-549h-131zM301 526.5q0 -184.5 100.5 -304.5t278.5 -120q174 0 268 119t94 305.5t-94 306t-268 119.5q-180 0 -279.5 -120.5t-99.5 -305z " />
<glyph unicode="&#xff;" horiz-adv-x="1210" d="M141 -246l80 111q137 -115 328 -115q156 0 258 82t102 256v176q-141 -217 -377 -217q-172 0 -273 105.5t-101 300.5v602h131v-572q0 -309 260 -309q156 0 258 104.5t102 268.5v508h131v-946q0 -213 -98 -328q-135 -158 -401 -158q-226 0 -400 131zM324 1229v135h129v-135 h-129zM741 1229v135h129v-135h-129z" />
<glyph unicode="&#x152;" horiz-adv-x="2123" d="M106 682q0 309 180.5 508t475.5 199q100 0 186 -25h1053v-135h-807q176 -162 213 -438h491v-134h-485q-10 -330 -221 -522h829v-135h-1073q-86 -25 -186 -25q-295 0 -475.5 200t-180.5 507zM260 682q0 -256 135 -412.5t367 -156.5q229 0 365.5 156.5t136.5 412.5 t-136.5 412.5t-365.5 156.5q-231 0 -366.5 -155.5t-135.5 -413.5z" />
<glyph unicode="&#x153;" horiz-adv-x="2054" d="M100 526q0 242 137.5 397.5t366.5 155.5q152 0 264.5 -69.5t173.5 -194.5q61 123 174 193.5t261 70.5q221 0 356 -150.5t135 -377.5q0 -29 -4 -53h-852q8 -182 112.5 -288t276.5 -106q193 0 314 138l96 -86q-164 -180 -412 -181q-160 0 -277.5 70t-181.5 193 q-61 -123 -173.5 -193t-262.5 -70q-229 0 -366.5 155.5t-137.5 395.5zM240 526q0 -182 98 -304t266 -122t266.5 122t98.5 304q0 186 -98.5 307t-266.5 121t-266 -121t-98 -307zM1116 610h713q-14 164 -113.5 254t-242.5 90q-152 0 -248.5 -96t-108.5 -248z" />
<glyph unicode="&#x178;" horiz-adv-x="1218" d="M16 1364h170l426 -666l428 666h164l-522 -797v-567h-147v567zM336 1487v135h129v-135h-129zM754 1487v135h129v-135h-129z" />
<glyph unicode="&#x2c6;" horiz-adv-x="653" d="M20 1276q127 88 259 209h110q131 -121 258 -209l-43 -76q-160 61 -270 168q-111 -106 -271 -168z" />
<glyph unicode="&#x2dc;" horiz-adv-x="653" d="M12 1272q27 74 75 116t101 42q45 0 135.5 -39t127.5 -39q68 0 127 73l59 -39q-27 -74 -75 -115.5t-101 -41.5q-43 0 -133 39t-129 39q-68 0 -127 -74z" />
<glyph unicode="&#x2000;" horiz-adv-x="871" />
<glyph unicode="&#x2001;" horiz-adv-x="1743" />
<glyph unicode="&#x2002;" horiz-adv-x="871" />
<glyph unicode="&#x2003;" horiz-adv-x="1743" />
<glyph unicode="&#x2004;" horiz-adv-x="581" />
<glyph unicode="&#x2005;" horiz-adv-x="435" />
<glyph unicode="&#x2006;" horiz-adv-x="290" />
<glyph unicode="&#x2007;" horiz-adv-x="290" />
<glyph unicode="&#x2008;" horiz-adv-x="217" />
<glyph unicode="&#x2009;" horiz-adv-x="348" />
<glyph unicode="&#x200a;" horiz-adv-x="96" />
<glyph unicode="&#x2010;" horiz-adv-x="792" d="M135 516v119h522v-119h-522z" />
<glyph unicode="&#x2011;" horiz-adv-x="792" d="M135 516v119h522v-119h-522z" />
<glyph unicode="&#x2012;" horiz-adv-x="792" d="M135 516v119h522v-119h-522z" />
<glyph unicode="&#x2013;" d="M115 563v119h944v-119h-944z" />
<glyph unicode="&#x2014;" horiz-adv-x="1933" d="M135 563v119h1663v-119h-1663z" />
<glyph unicode="&#x2018;" horiz-adv-x="434" d="M127 934v172q0 154 133 283l53 -50q-100 -88 -100 -190v-51h90v-164h-176z" />
<glyph unicode="&#x2019;" horiz-adv-x="405" d="M115 958q100 88 100 191v51h-90v164h176v-172q0 -154 -133 -283z" />
<glyph unicode="&#x201a;" horiz-adv-x="487" d="M145 -242q100 88 101 191v51h-90v164h176v-172q0 -154 -133 -283z" />
<glyph unicode="&#x201c;" horiz-adv-x="772" d="M127 934v172q0 154 133 283l53 -50q-100 -88 -100 -190v-51h90v-164h-176zM465 934v172q0 154 133 283l53 -50q-100 -88 -100 -190v-51h90v-164h-176z" />
<glyph unicode="&#x201d;" horiz-adv-x="743" d="M115 958q100 88 100 191v51h-90v164h176v-172q0 -154 -133 -283zM453 958q100 88 100 191v51h-90v164h176v-172q0 -154 -133 -283z" />
<glyph unicode="&#x201e;" horiz-adv-x="825" d="M145 -242q100 88 101 191v51h-90v164h176v-172q0 -154 -133 -283zM483 -242q100 88 101 191v51h-90v164h176v-172q0 -154 -133 -283z" />
<glyph unicode="&#x2022;" horiz-adv-x="727" d="M113 682q0 104 73.5 178t178.5 74q102 0 175.5 -74t73.5 -178q0 -102 -73.5 -176t-175.5 -74q-104 0 -178 74t-74 176z" />
<glyph unicode="&#x2026;" horiz-adv-x="1341" d="M152 0v176h176v-176h-176zM582 0v176h176v-176h-176zM1014 0v176h176v-176h-176z" />
<glyph unicode="&#x202f;" horiz-adv-x="348" />
<glyph unicode="&#x2039;" horiz-adv-x="552" d="M72 508v41l280 385l90 -70l-256 -336l256 -335l-90 -70z" />
<glyph unicode="&#x203a;" horiz-adv-x="552" d="M111 193l256 335l-256 336l90 70l280 -385v-41l-280 -385z" />
<glyph unicode="&#x205f;" horiz-adv-x="435" />
<glyph unicode="&#x20ac;" horiz-adv-x="1456" d="M86 500v96h158q-4 27 -4 86q0 57 4 86h-158v96h172q49 238 213 381.5t403 143.5q315 0 494 -252l-115 -86q-131 201 -379 200q-178 0 -298.5 -103.5t-163.5 -283.5h592v-96h-607q-4 -29 -4 -86q0 -59 4 -86h607v-96h-592q43 -180 163.5 -283.5t298.5 -103.5 q250 0 379 200l119 -84q-178 -254 -498 -254q-240 0 -403.5 143.5t-212.5 381.5h-172z" />
<glyph unicode="&#x2122;" horiz-adv-x="1406" d="M92 1284v82h479v-82h-196v-481h-90v481h-193zM672 803v563h139l164 -483l166 483h135v-563h-88v467l-158 -467h-115l-157 467v-467h-86z" />
<glyph unicode="&#xe000;" horiz-adv-x="1055" d="M0 1055h1055v-1055h-1055v1055z" />
<glyph unicode="&#xfb01;" horiz-adv-x="1126" d="M57 934v121h187v153q0 143 77.5 210t213.5 67q102 0 151 -23l-20 -114q-78 18 -131 18q-82 0 -121 -36t-39 -120v-155h258v-121h-258v-934h-131v934h-187zM825 0v1055h131v-1055h-131zM825 1298v164h131v-164h-131z" />
<glyph unicode="&#xfb02;" horiz-adv-x="1202" d="M57 934v121h187v153q0 143 77.5 210t213.5 67q102 0 151 -23l-20 -114q-78 18 -131 18q-82 0 -121 -36t-39 -120v-155h258v-121h-258v-934h-131v934h-187zM838 238v1224h131v-1224q0 -74 26.5 -105t79.5 -31q59 0 88 25l35 -117q-47 -29 -129 -28q-131 0 -190 81 q-41 56 -41 175z" />
<glyph unicode="&#xfb03;" horiz-adv-x="1851" d="M1550 0v1055h131v-1055h-131zM1550 1298v164h131v-164h-131zM747 934v121h187v153q0 143 77.5 210t213.5 67q102 0 151 -23l-20 -114q-78 18 -131 18q-82 0 -121 -36t-39 -120v-155h258v-121h-258v-934h-131v934h-187zM57 934v121h187v153q0 143 77.5 210t213.5 67 q102 0 151 -23l-20 -114q-78 18 -131 18q-82 0 -121 -36t-39 -120v-155h258v-121h-258v-934h-131v934h-187z" />
<glyph unicode="&#xfb04;" horiz-adv-x="1914" d="M1550 238v1224h131v-1224q0 -74 26.5 -105t80.5 -31q59 0 88 25l34 -117q-45 -28 -124 -28h-5q-131 0 -190 81q-41 56 -41 175zM747 934v121h187v153q0 143 77.5 210t213.5 67q102 0 151 -23l-20 -114q-78 18 -131 18q-82 0 -121 -36t-39 -120v-155h258v-121h-258v-934 h-131v934h-187zM57 934v121h187v153q0 143 77.5 210t213.5 67q102 0 151 -23l-20 -114q-78 18 -131 18q-82 0 -121 -36t-39 -120v-155h258v-121h-258v-934h-131v934h-187z" />
</font>
</defs>
</svg>
